<svg width="48" height="48" viewBox="0 0 48 48" fill="none" xmlns="http://www.w3.org/2000/svg">
<path d="M22.604 7.02478C31.7009 6.53007 39.4771 13.5018 39.9749 22.5985C40.4727 31.6952 33.5035 39.4738 24.407 39.9746C15.3062 40.4757 7.52306 33.5025 7.02509 24.4015C6.52708 15.3005 13.5029 7.51974 22.604 7.02478Z" fill="#EC6C34" style="fill:#EC6C34;fill:color(display-p3 0.9255 0.4235 0.2039);fill-opacity:1;"/>
<path d="M17.5449 15.0892C18.1618 15.1145 18.9598 15.0914 19.5881 15.0912L23.6259 15.0892C24.4584 15.0888 25.3111 15.0567 26.1402 15.1317C27.9774 15.298 29.8633 16.3079 30.2072 18.2663C30.429 19.5287 30.3122 20.9297 29.3165 21.8423C28.8679 22.2602 28.4266 22.4021 27.8704 22.6194C30.981 23.1399 31.535 26.4148 30.6659 28.9923C30.4787 29.4331 30.2144 29.8371 29.8855 30.1852C28.2935 31.8415 25.0666 31.6483 22.9347 31.6467C21.1382 31.638 19.3417 31.6428 17.5452 31.661L17.5449 15.0892Z" fill="#FEFEFE" style="fill:#FEFEFE;fill:color(display-p3 0.9961 0.9961 0.9961);fill-opacity:1;"/>
<path d="M20.8191 24.127C22.229 24.1223 23.6279 24.1006 25.0424 24.1424C26.7638 24.1931 27.7527 25.014 27.6087 26.8272C27.5606 27.4326 27.3813 27.7702 26.9256 28.1644C25.8901 28.8575 24.7529 28.8094 23.5688 28.8062C22.6528 28.7968 21.7367 28.7984 20.8207 28.8109C20.7795 27.3112 20.8142 25.6422 20.8191 24.127Z" fill="#EC6C34" style="fill:#EC6C34;fill:color(display-p3 0.9255 0.4235 0.2039);fill-opacity:1;"/>
<path d="M20.8198 17.6397C22.3265 17.6774 23.9383 17.5353 25.4227 17.756C26.9617 17.9849 27.357 20.0386 26.3045 21.0956C26.0581 21.2744 25.758 21.4363 25.4563 21.4826C23.9636 21.7119 22.3219 21.5769 20.8186 21.6188C20.791 20.3189 20.8117 18.9431 20.8198 17.6397Z" fill="#EC6C34" style="fill:#EC6C34;fill:color(display-p3 0.9255 0.4235 0.2039);fill-opacity:1;"/>
</svg>
