<svg width="48" height="48" viewBox="0 0 48 48" fill="none" xmlns="http://www.w3.org/2000/svg">
<circle cx="23.5" cy="23.5" r="16.5" fill="url(#paint0_linear_1716_28730)"/>
<path d="M17.1188 25.0961C16.9678 25.0966 16.8198 25.0543 16.692 24.974C16.5641 24.8938 16.4617 24.7789 16.3965 24.6427C16.3313 24.5065 16.3062 24.3547 16.3239 24.2048C16.3416 24.0549 16.4015 23.913 16.4966 23.7958L24.3939 15.6592C24.4531 15.5908 24.5339 15.5446 24.6228 15.5281C24.7118 15.5117 24.8037 15.526 24.8835 15.5686C24.9633 15.6113 25.0262 15.6798 25.0619 15.763C25.0976 15.8461 25.1039 15.9389 25.0799 16.0261L23.5483 20.8283C23.5032 20.9492 23.488 21.0792 23.5041 21.2073C23.5203 21.3353 23.5672 21.4575 23.6409 21.5634C23.7147 21.6693 23.813 21.7557 23.9275 21.8152C24.0419 21.8748 24.1691 21.9057 24.2982 21.9052H29.8821C30.0331 21.9047 30.1811 21.9471 30.309 22.0273C30.4368 22.1076 30.5393 22.2224 30.6044 22.3586C30.6696 22.4948 30.6948 22.6466 30.6771 22.7966C30.6594 22.9465 30.5995 23.0883 30.5044 23.2055L22.607 31.3421C22.5478 31.4105 22.4671 31.4567 22.3781 31.4732C22.2891 31.4896 22.1972 31.4754 22.1175 31.4327C22.0377 31.39 21.9748 31.3215 21.9391 31.2384C21.9034 31.1552 21.897 31.0624 21.921 30.9752L23.4526 26.173C23.4978 26.0521 23.5129 25.9221 23.4968 25.7941C23.4807 25.666 23.4337 25.5439 23.36 25.438C23.2863 25.3321 23.1879 25.2456 23.0735 25.1861C22.959 25.1265 22.8318 25.0957 22.7028 25.0961H17.1188Z" stroke="#121212" style="stroke:#121212;stroke:color(display-p3 0.0706 0.0706 0.0706);stroke-opacity:1;" stroke-width="1.19656" stroke-linecap="square"/>
<defs>
<linearGradient id="paint0_linear_1716_28730" x1="10.5267" y1="15.187" x2="38.1107" y2="32.1279" gradientUnits="userSpaceOnUse">
<stop stop-color="#6BE7A4" style="stop-color:#6BE7A4;stop-color:color(display-p3 0.4196 0.9059 0.6431);stop-opacity:1;"/>
<stop offset="1" stop-color="#60D1D9" style="stop-color:#60D1D9;stop-color:color(display-p3 0.3765 0.8196 0.8510);stop-opacity:1;"/>
</linearGradient>
</defs>
</svg>
