<svg width="48" height="48" viewBox="0 0 48 48" fill="none" xmlns="http://www.w3.org/2000/svg">
<path d="M19.334 7.03016C21.0941 6.99494 22.8741 7.02742 24.6353 7.0156C25.3851 7.01057 26.1749 7.03476 26.9212 7.011C26.8779 7.96274 26.9196 9.02389 26.9088 9.98461C26.8836 12.2425 26.9407 14.5276 26.9185 16.7831C27.1788 16.392 27.3543 15.9303 27.5732 15.511C27.9255 14.8362 28.2842 14.1644 28.6405 13.4916L30.6071 9.743C31.0588 8.88511 31.6119 7.8991 31.9795 7.02128C32.7481 6.97408 33.9992 7.02033 34.8319 7.01897C36.6311 7.01602 38.4906 6.9932 40.2851 7.03616C39.6615 8.31567 38.8903 9.69493 38.2231 10.9671L33.846 19.3229L32.3999 22.0721C32.2178 22.4166 32.028 22.7597 31.8355 23.0996C31.799 23.1642 31.8069 23.2274 31.8231 23.2984C31.6943 23.4331 31.0577 24.6726 30.9325 24.9092C30.1849 26.3124 29.4463 27.7203 28.7168 29.1329C28.4524 29.642 27.9119 30.586 27.713 31.0858C27.564 31.1367 27.1716 32.1343 26.915 32.4625C26.869 35.2819 26.916 38.1596 26.8995 40.9859C26.0953 40.9986 25.1851 41.0066 24.3848 40.9812C24.2617 40.5972 24.1765 40.2064 24.102 39.8102C23.8835 38.6481 23.6314 37.4915 23.3959 36.3322L21.7039 28.2422L20.0107 20.1571C19.8361 19.2931 19.4519 17.9016 19.3871 17.0403C19.3169 16.1082 19.3658 14.7706 19.3639 13.7903C19.3693 11.5369 19.3593 9.28345 19.334 7.03016Z" fill="#74C2A8" style="fill:#74C2A8;fill:color(display-p3 0.4549 0.7608 0.6588);fill-opacity:1;"/>
<path d="M27.7129 31.0862C27.9118 30.5864 28.4523 29.6425 28.7167 29.1333C29.4462 27.7207 30.1848 26.3128 30.9324 24.9097C31.0575 24.673 31.6942 23.4336 31.823 23.2988C32.656 24.7435 33.5172 26.5189 34.3022 28.0188L38.9085 36.8077C39.1991 37.3643 40.803 40.588 41.1292 40.9141V40.9576C40.9304 41.0221 39.6382 40.995 39.3644 40.993C37.1854 40.9749 34.9974 41.0201 32.8195 40.9846C32.7765 40.8232 32.0757 39.5413 31.9413 39.2707C30.9995 37.4033 30.0395 35.5451 29.0616 33.6963C28.6447 32.8975 28.0696 31.8817 27.7129 31.0862Z" fill="#5A9A85" style="fill:#5A9A85;fill:color(display-p3 0.3529 0.6039 0.5216);fill-opacity:1;"/>
<path d="M7 17.6934C7.31787 18.0838 7.84311 18.9466 8.14132 19.4094C8.65127 20.1941 9.16678 20.9752 9.6878 21.7526L11.804 24.9748C12.1482 25.4975 12.7288 26.3307 13.0186 26.8604C13.3417 26.5815 13.9502 25.7675 14.2531 25.4041C15.0203 24.4836 15.806 23.4541 16.6253 22.5861L16.8755 22.239C17.2939 24.1047 17.66 25.9812 18.0526 27.8503L20.0399 37.2151C20.2974 38.4257 20.5211 39.6549 20.8018 40.8717C20.1468 39.9425 19.411 38.7752 18.7878 37.8167C18.0619 36.7237 17.3416 35.6268 16.6271 34.5263L15.4704 32.7566C15.2236 32.3802 14.9741 31.9647 14.6889 31.6212C13.5381 32.9527 12.4662 34.3343 11.34 35.669C11.1531 35.9503 11.0842 36.0279 10.8343 36.2335C10.7411 35.4504 10.5046 34.801 10.375 34.0572C10.2024 33.0662 9.99216 32.1387 9.78498 31.1607L7.86213 21.9064L7.3145 19.2793C7.19995 18.7365 7.05447 18.248 7 17.6934Z" fill="#74C2A8" style="fill:#74C2A8;fill:color(display-p3 0.4549 0.7608 0.6588);fill-opacity:1;"/>
<path d="M16.6259 22.5873L16.8761 22.2402C17.2945 24.106 17.6606 25.9825 18.0531 27.8516L20.0404 37.2164C20.298 38.427 20.5216 39.6562 20.8024 40.8729C20.1474 39.9438 19.4115 38.7765 18.7884 37.818C18.0625 36.725 17.3422 35.6281 16.6276 34.5276L15.471 32.7579C15.2242 32.3815 14.9747 31.966 14.6895 31.6225C13.5387 32.954 12.4667 34.3356 11.3405 35.6702C11.3131 35.6352 11.3006 35.6077 11.2793 35.569C11.324 35.0871 12.0025 33.6658 12.217 33.1574L14.3654 28.0971C14.8385 26.9806 15.3107 25.864 15.7857 24.7483C16.0689 24.0831 16.3334 23.3887 16.6795 22.7532L16.6259 22.5873Z" fill="#5A9A85" style="fill:#5A9A85;fill:color(display-p3 0.3529 0.6039 0.5216);fill-opacity:1;"/>
</svg>
