<svg width="48" height="48" viewBox="0 0 48 48" fill="none" xmlns="http://www.w3.org/2000/svg">
<path d="M22.7305 5H24.2541C24.3977 5.04927 24.7029 5.02845 24.8723 5.04281C25.9758 5.13632 27.0258 5.30091 28.1017 5.57317C33.0839 6.85551 37.3094 10.1501 39.7679 14.6692C40.7908 16.5503 41.4775 18.5954 41.7973 20.7126C41.8681 21.1759 41.8997 21.6536 41.9608 22.119C41.9839 22.295 41.9592 22.5713 42 22.7288V24.2718C41.9599 24.4373 41.9819 24.6423 41.9648 24.8147C41.935 25.1133 41.8961 25.4109 41.8706 25.7101C41.7975 26.4067 41.6632 27.1048 41.5032 27.7863C40.3995 32.397 37.5708 36.4095 33.5993 38.9984C31.326 40.4786 28.7548 41.4396 26.0681 41.8136C25.5652 41.8826 25.0512 41.9171 24.5466 41.9794C24.305 42.009 23.9797 41.9501 23.7455 42H23.2713C23.0357 41.9496 22.7 42.0033 22.4536 41.9747C21.9922 41.9212 21.525 41.8844 21.0646 41.8271C18.8403 41.5324 16.6884 40.834 14.715 39.7663C10.0059 37.2169 6.62959 32.7554 5.45569 27.531C5.23743 26.5722 5.1311 25.6264 5.03675 24.6497C5.01201 24.3936 5.0752 23.853 5 23.6402V23.3468C5.07291 23.1441 5.01475 22.621 5.03329 22.375C5.239 19.6435 5.90921 17.1711 7.21552 14.7321C9.64879 10.2078 13.8528 6.89817 18.8218 5.59492C19.9145 5.31422 20.981 5.14223 22.1026 5.04589C22.2685 5.03164 22.5912 5.0493 22.7305 5Z" fill="#222222" style="fill:#222222;fill:color(display-p3 0.1333 0.1333 0.1333);fill-opacity:1;"/>
<path d="M20.7721 13.9373C21.043 13.7696 21.2676 13.6277 21.5559 13.4907C22.5382 13.0163 23.6528 12.8911 24.7158 13.1359C25.381 13.2943 25.9024 13.5504 26.4697 13.9195C27.037 13.7431 27.6052 13.4885 28.1694 13.2968C28.4109 13.2147 28.6472 13.1031 28.8969 13.0473C29.1266 12.9929 29.2398 13.099 29.3374 13.2972C29.3184 13.5351 29.2763 13.7639 29.2548 13.9972C29.1883 14.7198 29.0866 15.4382 29.0189 16.1597C29.003 16.3306 28.937 16.7026 28.9587 16.8499C28.9806 16.9986 29.1547 17.351 29.221 17.5023C29.3134 17.7125 29.3963 17.9266 29.4698 18.1441C29.692 18.814 29.7699 19.2759 29.9388 19.9342C31.0828 21.3386 31.598 22.7859 31.4056 24.6179C31.2347 26.2451 30.285 27.7493 29.0319 28.7684C28.3519 29.3216 27.5853 29.7587 26.7627 30.0618L26.7371 30.0761C26.676 30.1095 26.5982 30.127 26.5622 30.1731C26.9685 30.4042 27.0912 30.5431 27.2762 30.9624C27.2832 30.9787 27.4345 30.9772 27.4579 30.9769C27.3965 30.9805 27.3121 30.9783 27.263 31.0078C27.2588 31.1716 27.2592 31.415 27.2177 31.5675C27.0937 31.7129 27.1132 31.8372 26.8514 31.9519C26.4482 32.1286 26.3174 31.6372 26.1626 31.5772C25.9998 31.5864 25.9263 31.8641 25.7447 31.9398C25.2916 32.1282 25.1915 31.6377 25.0011 31.5832C24.7903 31.6168 24.8197 31.9282 24.4674 31.9741C24.0763 32.0253 24.0291 31.5991 23.8598 31.5615C23.6961 31.572 23.4808 31.5671 23.3133 31.5684C23.168 31.8789 22.9129 32.1311 22.5722 31.8865C22.4534 31.8011 22.3795 31.645 22.2499 31.5776C22.0845 31.57 22.0822 31.8684 21.8445 31.9445C21.3696 32.0966 21.3331 31.6681 21.1264 31.579C20.9001 31.5853 20.6295 32.5266 20.0287 31.5676C20.0273 31.5393 19.995 31.4146 19.9872 31.3745C19.9595 31.2316 19.9627 31.1335 19.9681 30.9888L19.6238 30.9774C19.724 30.9715 19.8664 30.9767 19.9695 30.9776C20.1142 30.54 20.2858 30.3991 20.6777 30.1729C20.6343 30.1335 20.5501 30.0918 20.4967 30.0633C18.1213 29.0934 16.2077 27.3032 15.8608 24.6289C15.6276 22.8313 16.2217 21.3334 17.3233 19.9394C17.507 19.3267 17.5812 18.7188 17.82 18.0893C17.8954 17.8907 18.2371 17.0748 18.2482 16.9631C18.2642 16.8035 18.1588 15.984 18.1363 15.7701L17.9364 13.9795C17.913 13.7675 17.8611 13.5201 17.8698 13.3079C17.8734 13.2188 17.9716 13.1057 18.0477 13.0713C18.171 12.9928 18.3713 13.0583 18.5004 13.1043C19.0388 13.2957 19.5718 13.5067 20.1097 13.6998C20.3226 13.7762 20.556 13.876 20.7721 13.9373Z" fill="#4D301C" style="fill:#4D301C;fill:color(display-p3 0.3020 0.1882 0.1098);fill-opacity:1;"/>
<path d="M17.3233 19.9395C17.3467 19.9851 17.2644 20.5601 17.2528 20.6581C16.9167 23.4985 17.5982 26.8444 19.4979 29.0456C19.7216 29.3009 19.961 29.5421 20.2147 29.7675C20.2753 29.8224 20.4833 29.9908 20.5047 30.0405L20.4967 30.0633C18.1213 29.0935 16.2077 27.3033 15.8608 24.6289C15.6276 22.8313 16.2217 21.3334 17.3233 19.9395Z" fill="#73482A" style="fill:#73482A;fill:color(display-p3 0.4510 0.2824 0.1647);fill-opacity:1;"/>
<path d="M29.9388 19.9355C31.0827 21.34 31.598 22.7873 31.4056 24.6192C31.2347 26.2464 30.2849 27.7506 29.0318 28.7698C28.3518 29.323 27.5853 29.76 26.7627 30.0631L26.7578 30.0261C26.8581 29.9343 26.9636 29.8521 27.0658 29.7618C28.8864 28.1559 29.8065 25.6853 30.0459 23.3175C30.0912 22.9306 30.0806 22.5354 30.0896 22.1487C30.1071 21.4091 30.0506 20.6919 29.9353 19.9626C29.9364 19.9536 29.9375 19.9446 29.9388 19.9355Z" fill="#73482A" style="fill:#73482A;fill:color(display-p3 0.4510 0.2824 0.1647);fill-opacity:1;"/>
<path d="M23.851 31.1213C23.9556 30.1649 25.1189 29.8581 25.9263 29.9747C26.1344 30.0047 26.37 30.0939 26.5633 30.1739C26.9696 30.405 27.0923 30.5439 27.2773 30.9633C27.2844 30.9795 27.4356 30.9781 27.4591 30.9777C27.3976 30.9813 27.3133 30.9792 27.2641 31.0086C27.26 31.1725 27.2603 31.4158 27.2188 31.5683C27.0948 31.7137 27.1144 31.838 26.8526 31.9528C26.4493 32.1295 26.3185 31.638 26.1637 31.5781C26.0009 31.5873 25.9274 31.865 25.7458 31.9407C25.2927 32.1291 25.1926 31.6386 25.0022 31.584C24.7914 31.6176 24.8208 31.9291 24.4685 31.975C24.0774 32.0261 24.0302 31.5999 23.861 31.5623C23.6973 31.5728 23.4819 31.5679 23.3145 31.5692C23.3443 31.3981 23.3939 31.3589 23.4107 31.1195L23.851 31.1213Z" fill="#F08743" style="fill:#F08743;fill:color(display-p3 0.9412 0.5294 0.2627);fill-opacity:1;"/>
<path d="M23.4107 31.1191L23.851 31.1209C23.8629 31.2434 23.9083 31.4369 23.9036 31.5321C23.8812 31.5533 23.8861 31.5553 23.861 31.5619C23.6973 31.5724 23.4819 31.5675 23.3145 31.5688C23.3443 31.3977 23.3939 31.3585 23.4107 31.1191Z" fill="#FEFEFE" style="fill:#FEFEFE;fill:color(display-p3 0.9961 0.9961 0.9961);fill-opacity:1;"/>
<path d="M20.6789 30.1744C21.2962 29.9079 21.9046 29.8649 22.5345 30.1157C23.0395 30.3166 23.2829 30.6022 23.4108 31.1202C23.394 31.3596 23.3443 31.3988 23.3145 31.5699C23.1692 31.8804 22.9141 32.1326 22.5734 31.888C22.4547 31.8026 22.3807 31.6465 22.2512 31.5791C22.0857 31.5715 22.0834 31.8699 21.8458 31.946C21.3709 32.0981 21.3343 31.6696 21.1277 31.5805C20.9014 31.5868 20.6307 32.5281 20.0299 31.5691C20.0285 31.5408 19.9962 31.4161 19.9884 31.376C19.9607 31.2331 19.9639 31.135 19.9693 30.9903L19.625 30.9789C19.7252 30.9729 19.8676 30.9782 19.9707 30.9791C20.1154 30.5415 20.2871 30.4006 20.6789 30.1744Z" fill="#F08743" style="fill:#F08743;fill:color(display-p3 0.9412 0.5294 0.2627);fill-opacity:1;"/>
<path d="M20.717 15.5668C21.0713 15.5304 21.4294 15.5636 21.7711 15.6645C22.5788 15.9005 23.2033 16.4639 23.6015 17.1966C24.5977 15.4744 26.6144 14.9365 28.1414 16.367C29.5464 17.6836 29.5524 20.1794 28.2186 21.5409C27.757 22.0121 26.9996 22.4317 26.3194 22.4382C26.5201 22.5969 26.7474 22.7724 26.9283 22.9508C27.7017 23.7074 28.1411 24.7416 28.1488 25.8236C28.1485 26.9664 27.6724 27.9523 26.8703 28.7471C24.9473 30.5763 21.6673 30.4187 20.0078 28.3164C19.3324 27.4739 19.0271 26.3937 19.1613 25.3224C19.2668 24.4409 19.702 23.5989 20.3258 22.9714C20.518 22.7781 20.7429 22.6073 20.9579 22.4391C20.473 22.45 19.8684 22.2222 19.4719 21.9494C17.572 20.642 17.5132 17.5569 19.3277 16.1492C19.7673 15.8081 20.1773 15.6648 20.717 15.5668Z" fill="#FEFEFE" style="fill:#FEFEFE;fill:color(display-p3 0.9961 0.9961 0.9961);fill-opacity:1;"/>
<path d="M25.6839 16.8538C26.65 16.8381 27.4474 17.6052 27.4693 18.5712C27.4909 19.5371 26.7289 20.3394 25.7631 20.3673C24.7888 20.3954 23.9776 19.625 23.9555 18.6504C23.9337 17.6758 24.7093 16.8696 25.6839 16.8538Z" fill="#CED9E0" style="fill:#CED9E0;fill:color(display-p3 0.8078 0.8510 0.8784);fill-opacity:1;"/>
<path d="M25.6267 17.5112C26.2303 17.4642 26.7589 17.9125 26.8111 18.5157C26.8633 19.1189 26.4195 19.6514 25.8168 19.7087C25.2067 19.7667 24.6663 19.3163 24.6135 18.7058C24.5608 18.0953 25.0157 17.5588 25.6267 17.5112Z" fill="#222222" style="fill:#222222;fill:color(display-p3 0.1333 0.1333 0.1333);fill-opacity:1;"/>
<path d="M25.9277 17.7991C26.0291 17.7845 26.1322 17.8084 26.217 17.8661C26.3232 17.9385 26.3893 18.0566 26.3955 18.185C26.4018 18.3135 26.3472 18.4374 26.2486 18.5197C26.1888 18.5695 26.1162 18.6013 26.039 18.6113C25.852 18.6356 25.6726 18.5293 25.6042 18.3536C25.5357 18.1779 25.596 17.9782 25.7501 17.8697C25.8029 17.8325 25.8638 17.8083 25.9277 17.7991Z" fill="#FEFEFE" style="fill:#FEFEFE;fill:color(display-p3 0.9961 0.9961 0.9961);fill-opacity:1;"/>
<path d="M21.3541 16.8547C22.32 16.8194 23.1328 17.5713 23.1728 18.5369C23.2127 19.5026 22.465 20.3191 21.4995 20.3638C20.5273 20.4089 19.7039 19.6547 19.6636 18.6823C19.6234 17.7099 20.3815 16.8902 21.3541 16.8547Z" fill="#CED9E0" style="fill:#CED9E0;fill:color(display-p3 0.8078 0.8510 0.8784);fill-opacity:1;"/>
<path d="M21.3351 17.5109C21.9429 17.4655 22.4723 17.9215 22.5173 18.5293C22.5623 19.137 22.1059 19.6661 21.4981 19.7107C20.8909 19.7553 20.3625 19.2994 20.3175 18.6922C20.2725 18.0851 20.728 17.5564 21.3351 17.5109Z" fill="#222222" style="fill:#222222;fill:color(display-p3 0.1333 0.1333 0.1333);fill-opacity:1;"/>
<path d="M21.6298 17.8027C21.7277 17.786 21.8284 17.8056 21.9128 17.8579C22.059 17.9485 22.1325 18.121 22.0967 18.2891C22.0608 18.4573 21.9233 18.5848 21.7529 18.6078C21.5656 18.6332 21.3855 18.5263 21.3179 18.3498C21.2821 18.2563 21.282 18.1529 21.3177 18.0593C21.369 17.9245 21.4876 17.827 21.6298 17.8027Z" fill="#FEFEFE" style="fill:#FEFEFE;fill:color(display-p3 0.9961 0.9961 0.9961);fill-opacity:1;"/>
<path d="M23.5272 20.1201C24.0056 20.042 25.38 20.9242 25.2181 21.3915C25.0669 21.8281 24.2017 22.7028 23.7858 22.9359C23.7253 22.9465 23.5749 22.9704 23.5126 22.9309C22.9826 22.5943 22.3973 21.9896 22.1011 21.4338C22.0549 21.3472 22.0792 21.1928 22.1224 21.1254C22.4292 20.647 23.0086 20.2817 23.5272 20.1201Z" fill="#F08743" style="fill:#F08743;fill:color(display-p3 0.9412 0.5294 0.2627);fill-opacity:1;"/>
<path d="M23.957 23.6894C24.3608 23.6858 24.7648 23.6873 25.1686 23.6939C25.1418 23.8874 25.1238 23.9707 24.9998 24.1205C24.5832 24.4972 23.9876 24.2648 23.957 23.6894Z" fill="#CED9E0" style="fill:#CED9E0;fill:color(display-p3 0.8078 0.8510 0.8784);fill-opacity:1;"/>
<path d="M22.123 23.6932C22.5127 23.68 22.949 23.6871 23.3396 23.6907C23.3027 23.908 23.2995 23.964 23.1592 24.1295C22.7397 24.4932 22.1679 24.2547 22.123 23.6932Z" fill="#CED9E0" style="fill:#CED9E0;fill:color(display-p3 0.8078 0.8510 0.8784);fill-opacity:1;"/>
<path d="M20.2812 26.0806C20.6689 26.0655 21.1321 26.0749 21.5215 26.0783C21.4771 26.272 21.4554 26.3603 21.3256 26.5086C20.9096 26.8978 20.3717 26.6201 20.2812 26.0806Z" fill="#CED9E0" style="fill:#CED9E0;fill:color(display-p3 0.8078 0.8510 0.8784);fill-opacity:1;"/>
<path d="M24.873 24.9004C25.0275 24.8939 25.9516 24.8873 26.0602 24.9131L26.0821 24.9637C26.0786 25.1097 25.9783 25.2489 25.8802 25.3498C25.5399 25.6186 25.1455 25.5487 24.9319 25.1516C24.8971 25.0871 24.885 24.9749 24.873 24.9004Z" fill="#CED9E0" style="fill:#CED9E0;fill:color(display-p3 0.8078 0.8510 0.8784);fill-opacity:1;"/>
<path d="M22.127 28.4523L23.3402 28.4512C23.303 28.6604 23.2947 28.7354 23.1506 28.8945C23.0193 28.9982 22.9304 29.0524 22.7551 29.06C22.5951 29.0672 22.4388 29.0103 22.3211 28.9016C22.183 28.7747 22.1337 28.634 22.127 28.4523Z" fill="#CED9E0" style="fill:#CED9E0;fill:color(display-p3 0.8078 0.8510 0.8784);fill-opacity:1;"/>
<path d="M23.959 26.0791C24.3626 26.0755 24.7662 26.0753 25.1698 26.0782C25.1398 26.2648 25.1127 26.3587 24.9927 26.5036C24.5611 26.8713 23.981 26.6299 23.959 26.0791Z" fill="#CED9E0" style="fill:#CED9E0;fill:color(display-p3 0.8078 0.8510 0.8784);fill-opacity:1;"/>
<path d="M22.1289 26.0782C22.5151 26.0668 22.9493 26.0755 23.3392 26.0748C23.2993 26.2919 23.292 26.3512 23.147 26.5123C22.7394 26.8811 22.1253 26.5961 22.1289 26.0782Z" fill="#CED9E0" style="fill:#CED9E0;fill:color(display-p3 0.8078 0.8510 0.8784);fill-opacity:1;"/>
<path d="M23.9609 28.4492L25.169 28.4512C25.1383 28.6478 25.121 28.7336 24.9895 28.8826C24.8565 28.9955 24.7515 29.0566 24.5696 29.0599C24.4088 29.0629 24.2534 29.0015 24.138 28.8895C23.9996 28.7556 23.966 28.6295 23.9609 28.4492Z" fill="#CED9E0" style="fill:#CED9E0;fill:color(display-p3 0.8078 0.8510 0.8784);fill-opacity:1;"/>
<path d="M21.2148 27.2869C21.6193 27.2841 22.0238 27.2847 22.4283 27.2885C22.3971 27.4971 22.3713 27.5504 22.2479 27.7105C22.1359 27.8066 22.0382 27.8637 21.889 27.8825C21.7291 27.9024 21.5679 27.8567 21.4422 27.7557C21.2703 27.6195 21.2383 27.4852 21.2148 27.2869Z" fill="#CED9E0" style="fill:#CED9E0;fill:color(display-p3 0.8078 0.8510 0.8784);fill-opacity:1;"/>
<path d="M23.0469 27.2902C23.4155 27.2736 23.8901 27.2845 24.2605 27.2881C24.2267 27.4937 24.2151 27.5381 24.0859 27.7018C23.9824 27.7992 23.8643 27.8637 23.7224 27.8828C23.5624 27.9045 23.4005 27.8588 23.2757 27.7563C23.1097 27.6228 23.0693 27.4861 23.0469 27.2902Z" fill="#CED9E0" style="fill:#CED9E0;fill:color(display-p3 0.8078 0.8510 0.8784);fill-opacity:1;"/>
<path d="M23.0469 24.8984L24.2611 24.899C24.23 25.1228 24.2109 25.1613 24.0714 25.3319C23.6217 25.7058 23.1185 25.4661 23.0469 24.8984Z" fill="#CED9E0" style="fill:#CED9E0;fill:color(display-p3 0.8078 0.8510 0.8784);fill-opacity:1;"/>
<path d="M21.2129 24.8965L22.4269 24.8977C22.3992 25.1037 22.3744 25.1678 22.2433 25.3254C21.9105 25.6291 21.4753 25.5501 21.2642 25.1413C21.2311 25.0771 21.2223 24.9698 21.2129 24.8965Z" fill="#CED9E0" style="fill:#CED9E0;fill:color(display-p3 0.8078 0.8510 0.8784);fill-opacity:1;"/>
<path d="M24.875 27.2864C25.1091 27.2861 25.8697 27.2702 26.0397 27.296C26.1536 27.3939 25.9751 27.6203 25.9026 27.7104C25.8027 27.8008 25.7017 27.8604 25.5675 27.8824C25.4108 27.9074 25.2506 27.8676 25.1238 27.7726C24.9406 27.6374 24.9014 27.4933 24.875 27.2864Z" fill="#CED9E0" style="fill:#CED9E0;fill:color(display-p3 0.8078 0.8510 0.8784);fill-opacity:1;"/>
<path d="M25.7871 26.0799C26.199 26.0757 26.6111 26.075 27.023 26.0779C26.9918 26.249 26.941 26.344 26.8321 26.4757C26.7197 26.5767 26.6144 26.636 26.4604 26.6533C26.302 26.6716 26.1427 26.6257 26.0185 26.5254C25.8688 26.4046 25.8102 26.2644 25.7871 26.0799Z" fill="#CED9E0" style="fill:#CED9E0;fill:color(display-p3 0.8078 0.8510 0.8784);fill-opacity:1;"/>
<path d="M12.4805 27.6214C12.6056 27.4721 12.7484 27.3388 12.8881 27.2031C13.9834 28.2714 15.053 29.3765 16.1423 30.4518C16.3188 30.626 16.4935 30.8166 16.6814 30.9774C17.6402 30.9954 18.6607 30.9788 19.6247 30.9788L19.969 30.9902C19.9636 31.1349 19.9604 31.233 19.9881 31.3759C19.9959 31.416 20.0282 31.5407 20.0296 31.5691C18.9308 31.5615 17.7872 31.5577 16.6896 31.5721C16.4608 31.775 16.1919 32.0675 15.969 32.2865C15.419 32.827 14.8815 33.3934 14.3261 33.9282C14.2102 33.8075 14.0323 33.6189 13.9061 33.5175L16.1442 31.28C16.0163 31.1729 15.8031 30.9461 15.6797 30.8225L14.7954 29.9375C14.0448 29.1886 13.2066 28.3874 12.4805 27.6214Z" fill="#FEFEFE" style="fill:#FEFEFE;fill:color(display-p3 0.9961 0.9961 0.9961);fill-opacity:1;"/>
<path d="M27.459 30.9769C28.9891 30.9767 30.6483 30.9471 32.1699 30.9814L32.1695 31.5669L27.2188 31.5675C27.2603 31.415 27.2599 31.1717 27.2641 31.0078C27.3132 30.9783 27.3976 30.9805 27.459 30.9769Z" fill="#FEFEFE" style="fill:#FEFEFE;fill:color(display-p3 0.9961 0.9961 0.9961);fill-opacity:1;"/>
</svg>
