<svg width="48" height="48" viewBox="0 0 48 48" fill="none" xmlns="http://www.w3.org/2000/svg">
<path d="M10 19.5614L10.0071 19.5396C10.0509 19.4026 10.1046 19.0779 10.1472 18.9078C10.2906 18.3169 10.5483 17.7598 10.9058 17.2679C11.1807 16.8937 11.976 16.135 12.3417 15.7667L15.1877 12.9171L19.2544 8.84645C19.561 8.54332 19.8653 8.23783 20.1673 7.93001C20.6862 7.39299 21.1386 6.90169 21.8235 6.55264C23.5234 5.68622 25.7825 5.81712 27.247 7.09745C27.7924 7.57419 28.3033 8.12403 28.8144 8.63698L31.5467 11.366L35.3878 15.2167C35.919 15.7512 36.4254 16.1771 36.9397 16.7505C37.2597 17.1004 37.5331 17.4902 37.753 17.9101C38.3476 19.0436 38.4565 20.3697 38.0549 21.5851C37.8421 22.2309 37.5095 22.831 37.075 23.354C36.7254 23.7791 36.0123 24.45 35.5937 24.8703C34.6235 25.8516 33.6468 26.8268 32.6643 27.7959L29.6133 30.8356C28.8366 31.6154 28.0413 32.4023 27.231 33.1492C26.996 33.3655 26.6425 33.572 26.3589 33.7169C25.2172 34.2993 23.8923 34.4088 22.6705 34.0216C21.9554 33.7893 21.4085 33.4999 20.857 32.9932C20.3609 32.5374 19.8905 32.0552 19.415 31.5793L16.9537 29.1276L13.2914 25.4641C12.6692 24.8405 12.029 24.2194 11.4234 23.5835C10.7853 22.9133 10.3044 22.098 10.1161 21.188C10.0965 21.0931 10.0347 20.7593 10 20.6812V19.5614ZM22.5578 22.5919C21.8172 21.4588 21.1848 20.2622 20.4603 19.163C19.4808 19.1179 18.4951 19.1316 17.5142 19.1312C17.2901 19.1311 16.4023 19.1201 16.2374 19.1589C16.2269 19.2725 16.8207 20.1214 16.9276 20.2836L17.9188 21.8048C18.4186 22.5707 19.0721 23.6296 19.604 24.3507L21.3541 27.0091C21.7258 27.5804 22.1873 28.3465 22.5792 28.8776C22.8736 28.4761 23.2177 27.8965 23.4898 27.4641L24.9997 25.0699L28.6389 19.3085C29.3861 18.1218 30.1409 16.8932 30.9084 15.7225C30.6517 15.3993 28.9034 13.5594 28.5732 13.4193C28.0703 14.2332 27.5242 15.0542 27.0036 15.8594L24.5862 19.5856C24.2735 20.0619 23.9218 20.5695 23.6214 21.0452C23.2196 21.6814 23.0659 22.0054 22.5578 22.5919Z" fill="#7BBC59" style="fill:#7BBC59;fill:color(display-p3 0.4824 0.7373 0.3490);fill-opacity:1;"/>
<path d="M35.8883 36.041C35.8971 36.0406 35.9345 36.0535 35.9447 36.0566C36.0048 36.1622 35.9765 36.8164 35.968 36.9729C36.3128 36.9554 36.713 36.9651 37.0587 36.9698L37.0632 37.4989C36.7101 37.4817 36.2972 37.5378 35.9711 37.4871C36.0076 38.1838 35.9466 38.928 35.9722 39.6301C36.0074 40.5877 36.3941 40.4121 37.0933 40.3821C37.1004 40.4196 37.1063 40.4571 37.1115 40.4948C37.1869 41.038 36.9385 40.9654 36.4863 40.9977C36.0043 41.0321 35.4729 40.7456 35.3621 40.2518C35.3015 39.9815 35.2963 39.7164 35.3025 39.4402C35.3161 38.7972 35.293 38.1548 35.2933 37.5123C35.0953 37.4996 34.9504 37.5034 34.7517 37.5102C34.7109 37.5708 34.6409 37.691 34.5752 37.6726C34.0289 37.5194 33.1251 37.1725 32.7419 37.8569C32.7849 38.016 32.8162 38.0787 32.8869 38.2238C33.2337 38.4765 33.7923 38.6191 34.1983 38.8116C34.2636 38.8479 34.3284 38.8851 34.3928 38.9231C34.6692 39.0864 34.8688 39.2658 34.9482 39.5882C35.0175 39.8606 34.9756 40.1495 34.8316 40.3911C34.6496 40.6897 34.3143 40.8377 33.9923 40.9369C33.5877 41.0616 32.5306 40.9492 32.1914 40.7453C32.1053 40.6452 32.1453 40.3046 32.1508 40.1604C32.6721 40.3107 34.0018 40.7597 34.2961 40.0103C34.3315 39.92 34.3079 39.7864 34.2952 39.6874C33.9339 39.3214 33.3415 39.1557 32.874 38.9353C32.2526 38.6426 31.9549 38.1802 32.2557 37.5039C32.5131 36.9253 33.397 36.8506 33.9506 36.9189C34.5106 36.9882 34.7196 37.1525 35.2822 36.962C35.4036 36.6634 35.4587 36.3498 35.6013 36.0582C35.6781 36.0488 35.807 36.0457 35.8883 36.041Z" fill="#7BBC59" style="fill:#7BBC59;fill:color(display-p3 0.4824 0.7373 0.3490);fill-opacity:1;"/>
<path d="M30.2574 36.9328C30.2865 36.9299 30.3157 36.9273 30.3448 36.9252C31.0422 36.8727 31.5966 37.2139 31.8658 37.8542C32.031 38.2469 32.0368 38.6268 32.0636 39.0435C31.6465 39.0967 31.0743 39.0531 30.6439 39.0505C30.2008 39.0477 29.7774 39.0585 29.3341 39.072C29.4268 40.2675 30.2238 40.6724 31.3172 40.321C31.4607 40.2939 31.7333 40.2027 31.8769 40.1572C31.8847 40.8546 31.8041 40.757 31.186 40.9135C30.0335 41.2053 28.8451 40.5737 28.7179 39.3215C28.6046 38.2063 28.9931 37.0852 30.2574 36.9328ZM29.3437 38.5747C29.5556 38.5582 30.2888 38.5476 30.5098 38.5615C30.7915 38.5474 31.0998 38.5243 31.3794 38.5384C31.2671 37.9214 31.0168 37.3223 30.2519 37.4696C29.5392 37.6329 29.5424 37.9817 29.3437 38.5747Z" fill="#7BBC59" style="fill:#7BBC59;fill:color(display-p3 0.4824 0.7373 0.3490);fill-opacity:1;"/>
<path d="M19.4311 35.6762L20.0494 35.668C20.0468 35.6972 20.0451 35.7264 20.0442 35.7559C20.0244 36.5008 20.0445 37.2748 20.0398 38.0238C20.0498 38.5029 20.0127 38.9752 20.0756 39.4517C20.1609 40.0982 20.736 40.4093 21.3505 40.4114C22.9263 40.4166 22.7545 39.1208 22.7534 38.011L22.7526 35.6739L23.3842 35.6699L23.3809 36.3147L23.387 38.1996C23.3879 38.5632 23.3991 38.9219 23.3701 39.2834C23.2775 40.3308 22.4944 40.9181 21.4896 40.9607C20.6045 40.9982 19.8466 40.7368 19.5331 39.8307C19.4634 39.6318 19.42 39.4246 19.4039 39.2144C19.395 39.1069 19.3707 38.7027 19.3831 38.6196C19.4505 38.1673 19.286 35.9755 19.4311 35.6762Z" fill="#7BBC59" style="fill:#7BBC59;fill:color(display-p3 0.4824 0.7373 0.3490);fill-opacity:1;"/>
<path d="M14.5639 35.6815C14.7916 35.6829 14.9708 35.6834 15.1968 35.6641C15.1469 35.7638 15.087 35.8594 15.0293 35.9546C14.5814 36.693 14.0925 37.4045 13.6229 38.129C13.7579 38.4356 14.2682 39.1923 14.4718 39.5067C14.754 39.9427 15.0762 40.5093 15.3655 40.9217L14.896 40.9293C14.8277 40.9297 14.756 40.9293 14.6899 40.9097C14.5091 40.8562 13.3873 38.914 13.2442 38.6468C13.1467 38.8289 13.0122 39.021 12.901 39.1985C12.579 39.7125 12.267 40.2354 11.9332 40.7417C11.8962 40.7978 11.8075 40.9163 11.7381 40.9118C11.6125 40.9036 11.3126 40.9323 11.2188 40.8574C11.2297 40.6827 12.6793 38.5214 12.875 38.1554C12.6844 37.8848 11.3627 35.9009 11.3168 35.6697C11.5396 35.6931 11.6964 35.6883 11.9228 35.682C11.9263 35.6846 11.9298 35.6874 11.9334 35.69C12.1902 35.8738 12.9911 37.3237 13.2599 37.7055L14.0425 36.4576C14.1883 36.2269 14.3945 35.8839 14.5639 35.6815Z" fill="#7BBC59" style="fill:#7BBC59;fill:color(display-p3 0.4824 0.7373 0.3490);fill-opacity:1;"/>
<path d="M17.4461 35.6386C17.9549 35.6072 18.6985 35.6636 19.1335 35.9516C19.0944 36.0152 18.91 36.4717 18.8135 36.4335C17.1585 35.7783 15.7841 36.5283 15.8716 38.4278C15.9454 40.0311 16.7653 40.5604 18.2941 40.3591C18.5464 40.3009 18.6818 40.2712 18.9399 40.251C18.9471 40.4209 18.9506 40.591 18.9506 40.761C17.9916 41.0478 16.7926 41.1291 15.9774 40.4305C14.9574 39.5564 14.9395 37.3941 15.8002 36.4008C16.2278 35.9073 16.8047 35.6928 17.4461 35.6386Z" fill="#7BBC59" style="fill:#7BBC59;fill:color(display-p3 0.4824 0.7373 0.3490);fill-opacity:1;"/>
<path d="M24.9683 35.6816C25.832 35.6649 26.7763 35.7219 27.6491 35.6955C28.0279 35.6842 28.4877 35.7175 28.8584 35.668L28.8556 36.2494C28.409 36.2817 27.6543 36.276 27.196 36.2647C27.2248 36.5407 27.2093 37.0632 27.2089 37.3537L27.2052 39.3386C27.2034 39.8255 27.1916 40.4361 27.2184 40.9145C26.9785 40.9105 26.8412 40.9178 26.5917 40.8964C26.5425 39.8476 26.5764 38.7298 26.5627 37.6769C26.5595 37.4343 26.5398 36.4549 26.579 36.2696C26.0392 36.2642 25.4993 36.264 24.9595 36.2694C24.9492 36.1341 24.9156 35.7959 24.9683 35.6816Z" fill="#7BBC59" style="fill:#7BBC59;fill:color(display-p3 0.4824 0.7373 0.3490);fill-opacity:1;"/>
<path d="M24.1489 35.6621C24.2805 35.6866 24.6121 35.6762 24.7612 35.6755C24.7735 36.0078 24.7607 36.4191 24.7602 36.7589L24.7581 38.9151C24.7568 39.333 24.7589 39.7506 24.7642 40.1684C24.7666 40.381 24.7802 40.7124 24.7641 40.9155C24.5517 40.9155 24.3666 40.9174 24.1544 40.9056C24.1291 40.2677 24.1421 39.5359 24.1412 38.8908L24.1489 35.6621Z" fill="#7BBC59" style="fill:#7BBC59;fill:color(display-p3 0.4824 0.7373 0.3490);fill-opacity:1;"/>
</svg>
