<svg width="48" height="48" viewBox="0 0 48 48" fill="#000000" xmlns="http://www.w3.org/2000/svg">
<path d="M21.5053 6.04696C22.2566 5.93416 23.1509 6.04694 23.8968 6.15068C25.9538 6.43675 27.7189 7.24781 29.3423 8.53065C33.1433 11.5115 34.5039 16.6532 32.6748 21.1239C32.3233 21.9679 32.0839 22.5262 31.4971 23.2272C31.3995 23.3438 31.2042 23.5935 31.2211 23.7387C31.4347 23.9232 31.676 24.0076 31.9106 24.1568C37.5373 27.7345 39.1437 35.5892 35.2666 40.9822C34.3365 41.0192 33.1488 40.9878 32.204 40.9824C32.4866 40.5999 32.8266 40.1627 33.0699 39.7626C34.1061 38.0379 34.6482 36.0615 34.637 34.0495C34.5975 32.104 34.0381 30.2045 33.0171 28.548C31.7705 26.5417 29.6955 24.9191 27.4606 24.1525C26.7427 23.9063 25.8163 23.7393 25.0644 23.5678C23.9982 23.3194 22.9348 23.0592 21.8742 22.7874C20.4509 22.4291 19.3916 22.1938 18.2872 21.1083C17.2234 20.0645 16.6169 18.6414 16.6006 17.1511C16.5857 15.6901 17.1511 14.2829 18.1727 13.2384C20.3716 11.0163 23.9355 10.983 26.1502 13.1877C27.2017 14.2422 27.7842 15.6758 27.7661 17.1649C27.7635 18.3053 27.3093 19.8167 26.4991 20.6217C26.0656 20.2028 25.9172 20.0452 25.3996 19.761C25.6164 20.9232 26.092 22.1394 26.3156 23.3294C27.2405 23.3974 29.0796 23.2942 30.1009 23.2808C29.8024 22.9952 29.4558 22.7919 29.1379 22.5173C29.3684 22.1074 29.6679 21.7348 29.8963 21.2995C33.2088 14.9847 28.3627 7.74365 21.2432 8.39394C20.2064 8.49464 18.9592 8.88238 18.0444 9.38229C15.9407 10.5134 14.3801 12.4428 13.7135 14.7364C13.0902 16.8689 13.4134 19.5094 14.527 21.423C15.3402 22.8204 16.9654 24.5625 18.5436 25.0256C14.9135 27.2136 12.8702 31.4395 13.4463 35.6205C13.6241 36.9111 13.9085 37.643 14.3817 38.8424C13.829 39.1594 13.2802 39.4387 12.7132 39.7293C13.4275 39.829 14.1718 39.9798 14.8939 40.0878C15.7823 40.2207 16.7812 40.3304 17.6401 40.5517C18.2734 39.0195 19.0121 37.4423 19.6213 35.9363C18.9939 36.2963 18.3949 36.6433 17.7468 36.9672C17.3363 36.4371 17.1405 34.8888 17.1361 34.2286C17.1202 32.4295 17.8241 30.6987 19.0912 29.4215C21.7809 26.6961 26.1356 26.7075 28.8478 29.3909C30.119 30.6503 30.8344 32.3653 30.8348 34.1547C30.853 35.9853 30.1294 37.7453 28.8287 39.0337C27.9177 39.9475 26.7684 40.5871 25.5117 40.8797C24.8318 41.031 23.9856 40.9925 23.2793 40.991L20.6713 40.9866L11.0345 40.9837C10.9599 35.627 11.0298 30.1155 11.0273 24.7457L11.0263 19.5869C11.0272 18.1823 10.9757 16.6074 11.2354 15.2389C11.5832 13.3648 12.398 11.6089 13.6045 10.1333C15.6684 7.62116 18.3052 6.36319 21.5053 6.04696Z" fill="#000000"/>
</svg>
