<svg width="48" height="48" viewBox="0 0 48 48" fill="#000000" xmlns="http://www.w3.org/2000/svg">
<path d="M24.7845 3C25.6416 3.62238 25.402 3.82688 25.9748 4.56984C26.9603 4.79402 27.9688 4.79656 29.0296 5.08922C32.5354 6.05621 35.6114 7.72626 38.1661 10.3416C38.4998 10.6832 39.3437 11.5299 39.5786 11.8983C39.5876 11.9126 39.5965 11.927 39.6052 11.9415C39.9747 11.5713 41.2236 9.87017 41.6994 9.81237C41.7117 10.0734 41.3332 10.4947 41.1852 10.7316C40.7954 11.3559 40.4694 11.9781 40.1722 12.6501C40.3267 12.9495 40.6788 13.426 40.8774 13.7247C41.1405 14.1272 41.3825 14.5432 41.6025 14.971C41.9308 14.4287 42.523 13.794 42.9814 13.3397C42.8347 13.8464 42.6015 14.4291 42.4238 14.9306C42.3316 15.1909 42.1629 15.4687 42.0699 15.7448C42.2147 16.2212 42.3871 16.5264 42.5463 16.9576C42.8101 17.672 43.1321 18.5312 43.3246 19.2607C44.6222 24.1417 44.0366 29.3321 41.6842 33.8013C39.137 38.5712 34.7768 42.1148 29.5869 43.6329C28.9064 43.8378 28.1248 43.9587 27.4218 44.0789C22.9536 44.8764 18.3469 44.1157 14.3723 41.924C9.02672 39.0282 5.22189 33.6469 4.36886 27.6829C4.24544 26.8201 4.05195 25.9702 4.01917 25.0952C3.92939 23.6842 4.17167 22.3679 4.39884 20.985C4.53858 20.1343 4.74366 19.0014 5.02315 18.193C4.86857 17.8461 4.69611 17.3204 4.60316 16.9576C4.82201 17.2079 5.03236 17.3957 5.27738 17.62C6.21916 15.033 7.53904 12.7472 9.45849 10.7493C12.916 7.11612 17.5881 4.88032 22.5864 4.46699C23.5027 4.38314 24.3631 4.45383 25.2688 4.43497C25.2279 4.03956 24.9603 3.36531 24.7845 3Z" fill="#000000"/>
<path d="M39.6052 11.9416C39.9747 11.5714 41.2236 9.8703 41.6994 9.8125C41.7117 10.0735 41.3332 10.4948 41.1852 10.7317C40.7954 11.356 40.4694 11.9782 40.1722 12.6503C40.3267 12.9496 40.6788 13.4262 40.8774 13.7248C41.1405 14.1274 41.3825 14.5434 41.6025 14.9711C41.9308 14.4289 42.523 13.7941 42.9814 13.3399C42.8347 13.8465 42.6015 14.4292 42.4238 14.9307C42.3316 15.191 42.1629 15.4688 42.0699 15.7449C42.2147 16.2214 42.3871 16.5265 42.5463 16.9578C42.8101 17.6721 43.1321 18.5313 43.3246 19.2609C44.6222 24.1418 44.0366 29.3322 41.6842 33.8014C39.137 38.5713 34.7768 42.1149 29.5869 43.633C28.9064 43.8379 28.1248 43.9588 27.4218 44.079C22.9536 44.8765 18.3469 44.1158 14.3723 41.9241C9.02672 39.0283 5.22189 33.647 4.36886 27.6831C4.24544 26.8202 4.05195 25.9703 4.01917 25.0953C3.92939 23.6844 4.17167 22.368 4.39884 20.9851C4.53858 20.1345 4.74366 19.0016 5.02315 18.1931C4.86857 17.8463 4.69611 17.3205 4.60316 16.9577C4.82201 17.2081 5.03236 17.3958 5.27738 17.6202C5.64533 18.1808 6.02964 18.7118 6.40041 19.2822C7.25533 20.5739 7.91494 22.4257 8.3919 23.8909C8.59736 24.5221 8.92449 26.4174 9.18488 26.7865C9.21253 27.0986 9.25758 27.4862 9.24343 27.7919C9.1972 27.8313 9.19781 27.8398 9.14415 27.8618C9.3982 27.9405 10.0061 27.986 10.2863 28.0064C10.6996 28.0828 11.1122 28.1637 11.5238 28.2493C11.8698 28.3148 12.2443 28.3933 12.59 28.4452C12.7165 28.4766 12.8595 28.5168 12.9868 28.5354C13.2754 28.6797 13.8856 28.8364 14.209 28.857C14.6411 28.9346 15.0593 29.0126 15.4962 29.0638C16.0711 30.5424 16.4733 31.9052 16.8889 33.437C17.101 34.1434 17.4613 34.8238 17.6093 35.318C17.4641 35.3217 17.0118 35.3239 16.8922 35.3462C16.3706 35.5297 16.2485 36.2829 16.1617 36.7811C16.0122 37.0983 15.7567 37.7719 15.6554 38.1092C15.8323 37.9787 15.873 37.7587 16.1659 37.7091C16.3876 37.6715 16.6328 37.8618 16.803 37.9717C17.197 38.5988 18.2443 38.368 18.8319 38.1488C19.0502 38.0674 19.1639 37.8946 19.29 37.7067C19.5917 38.4529 19.7577 38.5693 20.5638 38.2327C21.2912 38.5837 21.7543 38.5583 22.4165 38.1218C22.6543 38.6141 22.7286 38.7655 23.2568 38.9647C23.786 38.7421 23.9171 38.5249 24.2443 38.078C25.2948 38.6264 25.6588 38.7482 25.8424 37.4471C25.8756 37.4431 25.9089 37.4396 25.9423 37.4366C26.1405 37.4189 26.131 37.3891 26.2471 37.486C26.3197 37.6992 26.2124 37.9278 26.2364 38.2211C26.2768 38.2875 26.2948 38.3407 26.3671 38.3753C26.6971 38.5329 30.6827 38.1793 31.3376 38.114C31.9462 38.0532 32.5506 37.947 33.1598 37.8942C33.951 37.8256 34.9309 37.9672 35.6748 37.6952C35.9241 37.4118 35.9858 37.2501 36.1297 36.9117C35.7133 36.1585 35.6101 36.296 34.9808 35.7178C34.9072 35.6502 34.872 35.5484 34.8748 35.4451C34.9675 35.3319 34.9458 35.3654 35.1236 35.3316C35.5221 35.2033 35.8192 35.1088 36.1107 34.7708C36.8103 33.9596 36.7992 31.4422 37.3247 30.6819C37.232 30.3259 37.1414 29.7033 36.7938 29.5444C36.7684 29.0641 36.065 27.8487 36.213 27.6363C36.4438 27.7424 36.6978 28.1805 37.061 28.4242C37.188 28.8115 38.3374 30.4764 38.6137 30.7374L38.674 30.7509C38.3696 29.5381 38.1845 28.9126 37.9567 27.6384C38.4277 28.2428 38.5824 28.4055 38.8723 29.1038C38.9685 28.9413 38.6277 25.8051 38.5179 25.5189L37.9509 25.4789C37.8211 25.6254 37.8627 25.6258 37.7058 25.6511C37.4352 25.4846 37.213 24.7481 37.0892 24.4209L36.9556 24.1245C37.0681 23.7078 36.8255 22.2696 36.8263 21.7253C36.828 20.6012 36.9984 19.5264 37.0305 18.4106C37.3218 18.1194 37.3196 17.0915 37.4802 16.5709C37.838 15.4107 38.2555 14.4305 38.7503 13.3295C38.8568 13.113 39.4658 12.0485 39.6052 11.9416Z" fill="#000000"/>
<path d="M25.8422 37.4471C25.8754 37.4431 25.9087 37.4396 25.9421 37.4366C26.1402 37.4189 26.1307 37.3891 26.2469 37.4859C26.3195 37.6991 26.2121 37.9277 26.2362 38.2211C26.2766 38.2874 26.2945 38.3407 26.3669 38.3752C26.6969 38.5328 30.6825 38.1793 31.3374 38.1139C31.946 38.0532 32.5504 37.947 33.1596 37.8942C33.9508 37.8256 34.9306 37.9672 35.6746 37.6951L35.6851 37.7434C35.3275 38.0315 35.8569 38.5187 36.2509 38.0825C36.3673 37.9537 36.5099 37.7071 36.6653 37.7831C33.8843 40.7427 28.6989 42.7189 24.7152 42.8424C21.6944 42.9459 18.6948 42.301 15.9834 40.9651C15.7538 40.8546 14.8976 40.4579 14.7598 40.3154C15.1759 39.4823 15.3604 38.9976 15.6552 38.1091C15.8321 37.9786 15.8728 37.7587 16.1657 37.7091C16.3874 37.6715 16.6326 37.8617 16.8028 37.9716C17.1968 38.5987 18.2441 38.368 18.8316 38.1488C19.05 38.0673 19.1637 37.8945 19.2897 37.7067C19.5915 38.4528 19.7575 38.5693 20.5636 38.2326C21.291 38.5836 21.7541 38.5582 22.4162 38.1218C22.6541 38.6141 22.7284 38.7655 23.2566 38.9647C23.7857 38.742 23.9169 38.5248 24.2441 38.078C25.2946 38.6263 25.6585 38.7482 25.8422 37.4471Z" fill="none"/>
<path d="M7.8325 27.7949C8.33306 27.7947 8.64937 27.8154 9.14387 27.8623C9.39791 27.941 10.0058 27.9865 10.286 28.0069C10.6994 28.0833 11.1119 28.1642 11.5235 28.2498C11.8695 28.3153 12.244 28.3938 12.5897 28.4457C12.7162 28.4771 12.8592 28.5173 12.9866 28.5359C13.2751 28.6802 13.8853 28.8369 14.2087 28.8575C14.6408 28.9351 15.059 29.0131 15.4959 29.0643C16.0708 30.543 16.473 31.9057 16.8886 33.4375C16.8683 33.4342 16.7412 33.3964 16.7346 33.3877C16.034 32.463 15.6151 31.6071 14.7672 30.7804C14.9024 30.4888 14.9991 30.1347 15.0938 29.8235C14.903 30.0756 14.8478 30.2791 14.6123 30.5134C14.4812 30.6654 14.3413 30.8347 14.2032 30.9784C13.9171 31.6893 13.536 32.3991 13.2621 33.1067C13.0857 33.223 13.0934 33.4338 13.0341 33.5833C12.9955 33.6807 12.6357 33.6805 12.5485 33.8299C12.5505 33.943 12.5574 34.0842 12.5501 34.1945C12.4789 33.7633 12.4229 31.9821 12.2669 31.8206C11.6349 31.9712 11.6998 34.2313 11.6159 34.8164C11.5474 34.6042 11.6192 34.5125 11.533 34.3023L11.4443 34.2783C11.3123 34.3272 10.9456 34.4282 10.8838 34.5022C10.8926 34.6235 10.9065 34.6742 10.8422 34.7831C10.5468 33.8946 9.95374 32.6206 9.31166 31.9366C9.43883 32.6705 9.6892 33.2901 9.86471 34.0136L9.80409 34.0763C9.41475 34.0518 8.7811 33.9604 8.48153 34.2044C7.44085 32.5916 6.2857 30.0037 6.04102 28.1036C6.56448 27.9644 7.29661 27.8593 7.8325 27.7949Z" fill="#000000"/>
<path d="M14.2048 30.9792C14.0942 30.8065 13.6016 29.7917 13.6409 29.6445C13.8963 29.6806 14.4126 30.295 14.6139 30.5142C14.4827 30.6662 14.3428 30.8355 14.2048 30.9792Z" fill="#000000"/>
<path d="M41.2468 18.0645C42.1705 20.294 42.804 24.2239 42.3012 26.6002C41.7203 26.1615 41.595 26.1347 40.9005 25.9046C40.9062 25.6614 40.9467 25.4055 40.7858 25.2298L40.6934 25.2596C40.5558 25.3982 40.4989 25.6194 40.4331 25.8078C40.0225 25.7214 39.5982 25.7084 39.199 25.5713C39.0565 25.0867 38.8022 24.5482 38.6816 24.1014C38.8576 23.5764 39.1466 23.0781 39.3612 22.5689C39.7897 21.5521 40.2355 20.559 40.6343 19.5299C40.8302 19.0245 41.0804 18.6057 41.2468 18.0645Z" fill="#000000"/>
<path d="M40.4324 25.8085C40.4983 25.6201 40.5551 25.3989 40.6928 25.2603L40.7851 25.2305C40.9461 25.4062 40.9055 25.6621 40.8998 25.9053C41.5944 26.1354 41.7197 26.1622 42.3006 26.6009L42.0644 27.402C41.9644 27.6366 41.8143 28.0184 41.7014 28.2342C41.9083 28.2736 41.8814 28.2345 41.99 28.3666C41.7549 29.6109 41.5019 30.3961 40.9916 31.5641C40.8926 31.8576 40.156 33.3097 39.9587 33.752C39.6134 33.0936 38.9529 31.4547 38.6743 30.7501C38.3699 29.5374 38.1848 28.9119 37.957 27.6377C38.428 28.242 38.5827 28.4048 38.8726 29.1031C39.0158 29.5379 39.2704 29.9551 39.4424 30.3844C39.6511 30.9057 39.8215 31.433 40.0191 31.9605C39.9928 30.888 39.9057 30.2361 39.9279 29.083C40.0593 27.9985 40.1551 26.859 40.4324 25.8085Z" fill="none"/>
<path d="M40.8999 25.9062C41.5944 26.1364 41.7197 26.1632 42.3006 26.6018L42.0644 27.403C41.9644 27.6375 41.8143 28.0194 41.7014 28.2352C41.0342 29.3 41.0335 30.2309 40.8129 31.3293C40.7508 31.3072 40.7524 31.2982 40.699 31.2521C40.6825 30.6458 40.7903 30.0293 40.8125 29.4253C40.8553 28.2631 40.9193 27.0672 40.8999 25.9062Z" fill="#000000"/>
<path d="M39.605 11.9416C39.9745 11.5714 41.2234 9.8703 41.6993 9.8125C41.7115 10.0735 41.333 10.4948 41.1851 10.7317C40.7952 11.356 40.4693 11.9782 40.172 12.6503C40.162 12.8992 39.5836 13.8877 39.4601 14.5431C38.9972 15.6605 38.7421 16.6385 38.4323 17.806C38.1888 18.7238 37.9383 19.6849 37.7969 20.627C37.7088 21.2136 37.236 22.7417 37.4334 23.1975C37.3923 23.4591 37.2613 24.256 37.0891 24.4209L36.9555 24.1245C37.0679 23.7078 36.8254 22.2696 36.8262 21.7253C36.8278 20.6012 36.9982 19.5264 37.0303 18.4106C37.3216 18.1194 37.3195 17.0915 37.48 16.5709C37.8379 15.4107 38.2554 14.4305 38.7502 13.3295C38.8567 13.113 39.4657 12.0485 39.605 11.9416Z" fill="none"/>
<path d="M4.60352 16.957C4.82236 17.2074 5.03272 17.3951 5.27774 17.6195C5.64568 18.1801 6.02999 18.7111 6.40076 19.2815C7.25568 20.5732 7.9153 22.425 8.39225 23.8902C8.59772 24.5214 8.92484 26.4167 9.18524 26.7858C9.21289 27.0979 9.25794 27.4855 9.24379 27.7912C9.19756 27.8306 9.19817 27.8391 9.14451 27.8611C8.65001 27.8142 8.3337 27.7935 7.83314 27.7937C7.60247 25.7535 6.86817 23.6941 6.24557 21.745C6.17084 21.5111 6.14714 21.3091 5.99016 21.1127C5.95362 20.6302 5.24637 18.6907 5.0235 18.1924C4.86892 17.8456 4.69647 17.3198 4.60352 16.957Z" fill="none"/>
<path d="M5.99022 21.1133C6.1472 21.3097 6.17091 21.5117 6.24563 21.7456C6.86824 23.6946 7.60253 25.754 7.8332 27.7943C7.29732 27.8586 6.56519 27.9637 6.04172 28.1029C5.49211 25.6637 5.52855 23.5475 5.99022 21.1133Z" fill="#000000"/>
<path d="M39.4612 14.541C39.9373 15.2094 40.1634 15.5698 40.507 16.3083C40.1364 17.2516 39.373 18.2528 38.9743 19.2559C38.7053 19.9325 38.393 20.5854 38.1448 21.2808C37.9536 21.8164 37.6998 22.7229 37.4345 23.1955C37.2371 22.7397 37.7099 21.2115 37.798 20.6249C37.9394 19.6828 38.1899 18.7217 38.4334 17.8039C38.7432 16.6364 38.9983 15.6584 39.4612 14.541Z" fill="#000000"/>
<path d="M35.1221 35.3317C35.3108 35.374 35.5086 35.3405 35.6727 35.2382C35.8224 35.1455 36.055 34.9148 36.2082 34.8737C36.6025 34.768 37.0546 34.8558 37.4639 34.8201C37.8514 34.7863 38.5769 34.4767 38.9337 34.5732C38.9634 34.6489 39.0128 34.7284 38.9914 34.7904C38.8869 35.0935 38.5674 35.3454 38.5377 35.654C38.3349 36.0233 36.9934 37.5929 36.6639 37.7832C36.5085 37.7073 36.3659 37.9538 36.2496 38.0826C35.8556 38.5188 35.3262 38.0317 35.6838 37.7436L35.6732 37.6953C35.9226 37.4119 35.9842 37.2502 36.1282 36.9118C35.7117 36.1586 35.6086 36.2961 34.9792 35.7179C34.9056 35.6503 34.8705 35.5485 34.8732 35.4452C34.9659 35.3319 34.9443 35.3655 35.1221 35.3317Z" fill="#000000"/>
<path d="M14.6128 30.5122C14.8483 30.2779 14.9035 30.0744 15.0943 29.8223C14.9996 30.1335 14.9029 30.4876 14.7677 30.7792C14.7225 30.9278 14.5254 31.5928 14.4757 31.69C14.1517 32.7599 13.8976 33.8497 13.715 34.9526C13.5148 35.5899 13.2847 36.836 13.1758 37.506C13.0467 38.0012 12.963 38.5338 12.8433 39.0434C12.5112 38.8887 12.3946 38.7102 12.1875 38.421C12.3369 37.3556 12.4566 36.191 12.6329 35.1427C12.5476 34.7581 12.5528 34.5841 12.5506 34.1933C12.5579 34.083 12.551 33.9418 12.5491 33.8287C12.6362 33.6793 12.9961 33.6795 13.0346 33.5821C13.0939 33.4325 13.0862 33.2218 13.2627 33.1055C13.5365 32.3979 13.9176 31.6881 14.2037 30.9772C14.3418 30.8335 14.4817 30.6642 14.6128 30.5122Z" fill="none"/>
<path d="M12.5484 34.1932C12.5557 34.083 12.5488 33.9418 12.5469 33.8286C12.6341 33.6792 12.9939 33.6794 13.0324 33.5821C13.0917 33.4325 13.084 33.2218 13.2605 33.1055C13.2451 33.3027 12.7247 34.9408 12.6308 35.1426C12.5454 34.7581 12.5506 34.584 12.5484 34.1932Z" fill="#000000"/>
<path d="M37.3261 30.6816C37.4876 31.0432 37.6673 31.3933 37.8442 31.7476C38.3265 32.7144 38.6771 33.7829 39.1416 34.7508C38.9685 35.0988 38.8109 35.3661 38.5406 35.6537C38.5704 35.3451 38.8899 35.0932 38.9943 34.7901C39.0157 34.7281 38.9663 34.6485 38.9366 34.5729C38.5799 34.4764 37.8543 34.786 37.4668 34.8198C37.0576 34.8555 36.6054 34.7677 36.2112 34.8734C36.0579 34.9144 35.8253 35.1452 35.6757 35.2379C35.5115 35.3401 35.3137 35.3737 35.125 35.3314C35.5234 35.2031 35.8205 35.1085 36.1121 34.7705C36.8117 33.9594 36.8006 31.4419 37.3261 30.6816Z" fill="#000000"/>
<path d="M9.31055 31.9355C9.95262 32.6195 10.5456 33.8935 10.8411 34.782C10.9054 34.6731 10.8915 34.6224 10.8826 34.5012C10.9445 34.4271 11.3112 34.3261 11.4432 34.2772L11.5319 34.3012C11.6181 34.5115 11.5463 34.6032 11.6148 34.8153C11.6261 35.166 11.6389 36.4356 11.5466 36.7227C11.5175 37.0202 11.5323 37.5325 11.5326 37.8467C10.9921 37.5469 10.7544 37.171 10.3816 36.6953C10.458 36.4338 9.96381 34.3997 9.86359 34.0125C9.68809 33.289 9.43771 32.6694 9.31055 31.9355Z" fill="none"/>
<path d="M10.8418 34.7821C10.9061 34.6732 10.8922 34.6226 10.8834 34.5013C10.9452 34.4273 11.3119 34.3263 11.4439 34.2773L11.5326 34.3013C11.6188 34.5116 11.547 34.6033 11.6155 34.8155C11.6268 35.1662 11.6396 36.4358 11.5473 36.7228C11.2389 36.3833 10.9703 35.2567 10.8418 34.7821Z" fill="#000000"/>
<path d="M14.4746 31.6901C14.5243 31.5929 14.7214 30.9279 14.7666 30.7793C15.6145 31.606 16.0333 32.4619 16.734 33.3866C16.7406 33.3953 16.8677 33.4331 16.888 33.4364C17.1001 34.1428 17.4604 34.8232 17.6084 35.3174C17.4632 35.3211 17.0109 35.3233 16.8913 35.3456L16.5647 34.9472C16.4989 34.8205 16.2822 34.5238 16.192 34.3934C16.0627 34.0839 14.728 31.8566 14.4746 31.6901Z" fill="#000000"/>
<path d="M16.565 34.9473L16.8915 35.3457C16.37 35.5292 16.2479 36.2823 16.1611 36.7806C16.0115 37.0978 15.756 37.7714 15.6547 38.1087C15.36 38.9971 15.1755 39.4819 14.7593 40.3149C14.5353 40.1499 14.2648 39.9776 14.002 39.8841C14.15 39.6807 14.4403 39.0066 14.5079 38.7623C14.911 37.4485 15.5853 36.3968 16.3288 35.2651C16.4023 35.1532 16.4812 35.0511 16.565 34.9473Z" fill="none"/>
<path d="M14.8336 34.4292L14.9005 34.4204C14.9051 34.5314 14.9038 34.607 14.8975 34.718L14.9767 34.7758C15.2956 34.7623 15.8421 34.6975 16.1298 34.5672C16.1618 34.5055 16.1733 34.46 16.1933 34.3945C16.2835 34.525 16.5001 34.8216 16.566 34.9483C16.4822 35.0522 16.4033 35.1543 16.3298 35.2661C15.5863 36.3978 14.912 37.4496 14.5089 38.7634C14.3862 38.5467 14.3396 38.5784 14.1094 38.5151C14.5611 37.317 14.7321 35.7049 14.8336 34.4292Z" fill="#000000"/>
<path d="M14.4756 31.6895C14.729 31.8559 16.0637 34.0832 16.193 34.3928C16.173 34.4582 16.1615 34.5037 16.1295 34.5654C15.8418 34.6958 15.2953 34.7605 14.9764 34.774L14.8972 34.7162C14.9035 34.6052 14.9048 34.5297 14.9002 34.4186L14.8333 34.4275C14.8479 34.1731 14.8897 33.8989 14.7881 33.6705L14.7077 33.5994C14.3759 33.7211 14.062 34.8871 13.9671 35.2383C13.9581 35.0288 13.9912 35.0165 13.8902 34.8694L13.9445 34.9118C13.9277 34.8708 13.9377 34.8901 13.8854 34.8607L13.7744 35.0085L13.7148 34.9521C13.8974 33.8492 14.1515 32.7594 14.4756 31.6895Z" fill="#000000"/>
<path d="M9.86561 34.0117C9.96582 34.3989 10.46 36.433 10.3836 36.6945C9.79295 36.2338 8.89551 34.8695 8.48242 34.2026C8.78199 33.9585 9.41564 34.05 9.80499 34.0745L9.86561 34.0117Z" fill="#000000"/>
<path d="M39.1973 25.5723C39.5964 25.7094 40.0207 25.7223 40.4313 25.8087C40.154 26.8593 40.0582 27.9987 39.9268 29.0833C39.8547 28.969 39.4191 26.1794 39.1973 25.5723Z" fill="#000000"/>
<path d="M13.7136 34.9527L13.7731 35.0091L13.8841 34.8613C13.9364 34.8907 13.9264 34.8713 13.9432 34.9124L13.8889 34.87C13.9899 35.0171 13.9568 35.0294 13.9658 35.2389C13.8894 35.6739 13.5881 37.3087 13.4254 37.6553C13.3774 37.9818 13.2813 38.9627 13.089 39.1407C12.942 39.1371 12.9802 39.1341 12.8418 39.0435C12.9615 38.5338 13.0452 38.0013 13.1744 37.506C13.2832 36.836 13.5134 35.59 13.7136 34.9527Z" fill="#000000"/>
<path d="M12.8418 39.0433C12.9615 38.5337 13.0452 38.0011 13.1744 37.5059C13.2371 37.7888 13.0855 38.443 13.0283 38.7433C13.2455 38.413 13.2748 37.7279 13.3898 37.6134L13.4254 37.6551C13.3774 37.9816 13.2813 38.9625 13.089 39.1405C12.942 39.1369 12.9802 39.1339 12.8418 39.0433Z" fill="none"/>
<path d="M14.1081 38.5137C14.3383 38.577 14.3849 38.5453 14.5077 38.762C14.44 39.0063 14.1498 39.6803 14.0017 39.8838C13.9421 39.848 13.8807 39.7999 13.8241 39.7584C13.7463 39.5292 14.0244 38.8167 14.1081 38.5137Z" fill="none"/>
<path d="M38.325 24.6367C38.3749 24.8478 38.4993 25.3245 38.5182 25.5188L37.9512 25.4788C38.0715 25.2259 38.2307 24.8978 38.325 24.6367Z" fill="#000000"/>
<path d="M42.0641 27.4023C42.1424 27.6562 42.0182 28.0801 41.9898 28.3669C41.8811 28.2348 41.9081 28.274 41.7012 28.2345C41.8141 28.0187 41.9641 27.6369 42.0641 27.4023Z" fill="none"/>
<path d="M16.3422 13.26C16.2979 12.8567 16.0919 12.1558 16.3272 11.8191C16.478 11.6032 16.9859 11.6136 17.2067 11.743C17.4415 12.1379 16.7862 12.7372 17.0215 13.1005C17.2881 13.5121 18.8345 13.3876 19.2928 13.4399C20.2734 13.5517 19.8658 12.4039 19.8438 11.8245C20.1928 11.7646 21.089 11.6758 21.1374 12.1908C21.1814 12.6589 20.6893 13.1548 20.4637 13.5554C20.5645 13.6851 22.1912 15.6311 22.1504 15.5027C22.6606 15.807 23.3526 15.959 23.6751 16.2307C24.4275 16.8649 24.8863 17.7878 25.8327 18.2324C26.8327 18.7021 27.9958 18.847 29.019 19.1711C31.9897 20.1121 34.4303 21.185 36.0413 24.0227C36.4845 24.8033 36.9197 25.6855 37.1755 26.5592C37.3567 27.1781 37.2342 27.8144 37.0603 28.4234C36.6971 28.1797 36.4431 27.7416 36.2123 27.6355C36.0643 27.8479 36.7677 29.0633 36.7931 29.5436C36.6934 29.8528 36.5737 30.5124 36.4998 30.862C36.3437 31.6319 36.1708 32.3984 35.9812 33.1607C35.8953 33.509 35.8192 33.8595 35.6919 34.1961C35.5425 34.5909 35.0982 34.5492 34.753 34.69C34.6256 34.742 34.5714 34.7952 34.4323 34.8486C34.0514 34.6386 34.3065 33.8104 33.7682 33.5602C33.6274 33.5597 33.6107 33.5621 33.4941 33.6402C32.9758 34.4556 34.5726 36.3827 35.217 36.8305C35.2878 36.8797 35.288 36.9448 35.2805 37.0223C35.1966 37.0737 35.0657 37.1191 34.9674 37.1186C33.6749 37.1114 32.4069 37.2849 31.1197 37.4019C29.7457 37.5267 28.3156 37.5605 26.9492 37.7313C27.013 37.5228 27.1762 36.8625 27.3958 36.8348C29.0163 36.6299 30.7034 36.3211 32.2995 36.0285C31.3945 35.0558 30.0609 34.3083 29.1276 33.3106C28.2512 32.3738 27.5944 31.4994 27.62 30.1535C27.6352 28.9066 28.0864 27.7522 29.2375 27.1508C29.601 26.9609 30.1417 26.9573 30.1484 26.451C30.08 26.2953 30.124 26.3489 29.9754 26.2523C29.7265 26.2079 29.4473 26.2973 29.214 26.3843C27.1262 27.1418 26.4798 29.9174 27.2462 31.8197C27.7232 33.0034 28.9453 34.0848 29.9052 34.8903C30.215 35.1502 30.5696 35.4823 30.9377 35.6417C30.4349 35.7007 29.8825 35.7782 29.3803 35.7926C28.4696 34.9944 26.4383 33.9463 25.5225 33.091C25.4658 32.3369 25.5088 31.2757 25.8031 30.5965C26.0328 30.0665 25.4538 28.4463 24.8518 28.9122C24.6186 29.3741 25.072 29.8449 25.3561 30.1645C25.1821 30.3726 24.977 30.603 24.929 30.8737C24.7356 31.9639 24.8411 33.1872 24.665 34.2803C24.5684 34.8793 24.1029 35.4514 24.2488 36.1502C24.3323 36.5502 25.2068 37.3486 25.2017 37.645C24.7824 37.6186 24.488 37.4883 24.0266 37.4565C23.8405 37.5636 23.1797 38.1642 23.2161 38.1555C22.9569 37.8385 22.831 37.6826 22.5241 37.4172C22.0167 37.5142 21.658 37.7412 21.2156 37.9935C21.3489 37.849 21.4801 37.7027 21.6092 37.5545C22.1558 36.9183 23.1441 35.5226 23.0969 34.6219C23.0831 34.3588 22.9694 33.9077 22.8843 33.655C22.4445 32.3694 21.8816 31.1124 21.3668 29.8546C21.1694 29.3722 20.6852 27.9707 20.3558 27.691C20.2251 27.6799 20.2081 27.6789 20.0997 27.7511C19.7202 28.289 20.9961 30.3163 21.0912 31.0498C21.273 32.4502 21.0721 33.9574 20.9624 35.3674C20.7285 35.5227 20.5077 35.7644 20.3071 35.9659C20.4395 36.6202 20.344 37.0081 20.2524 37.6595C19.9428 37.4239 19.6583 37.173 19.3047 37.0159C18.8387 37.1657 18.7991 37.2636 18.4009 37.5634C18.0477 37.5854 17.699 37.5767 17.3453 37.5724C17.5639 37.3671 17.823 37.1639 17.7496 36.8386C17.5726 36.541 17.2013 36.5725 16.8626 36.4106L16.8386 36.3358C17.2136 35.8192 18.2181 36.2091 19.107 35.7542C19.157 35.6822 19.4007 35.33 19.4155 35.2627C19.7077 33.9352 18.77 31.3183 18.2027 30.0846C17.7949 29.2258 17.0012 28.3077 16.6658 27.4343C15.8302 25.258 14.7824 23.1609 13.8848 21.0172C14.35 20.8417 16.2081 20.233 16.0415 19.5876C15.9298 19.46 15.909 19.4509 15.7555 19.3853C15.5998 19.3778 15.4401 19.4984 15.3185 19.5878C14.0495 20.521 12.0453 20.7815 10.6301 20.0239C10.2681 19.8301 9.76245 19.676 9.36573 19.5579C9.29039 19.0136 9.39371 17.8982 9.37696 17.267C9.62894 17.3226 10.0402 17.4865 10.1203 17.1626C10.0162 16.8565 9.77666 16.7417 9.50949 16.5741C10.2623 15.6896 10.2532 16.0459 11.2523 15.6057C11.4354 15.525 11.6311 15.2682 11.8995 15.1644C12.7031 14.593 13.9274 13.9988 14.8659 13.6635C15.2816 13.515 15.9411 13.4207 16.3422 13.26Z" fill="#000000"/>
<path d="M16.3431 13.26C16.2988 12.8567 16.0928 12.1558 16.3281 11.8191C16.4789 11.6032 16.9868 11.6136 17.2076 11.743C17.4423 12.1379 16.7871 12.7372 17.0224 13.1005C17.289 13.5121 18.8354 13.3876 19.2936 13.4399C20.2743 13.5517 19.8667 12.4039 19.8447 11.8245C20.1937 11.7646 21.0899 11.6758 21.1383 12.1908C21.1823 12.6589 20.6902 13.1548 20.4646 13.5554C20.5654 13.6851 22.1921 15.6311 22.1513 15.5027L22.0876 15.5029C21.7964 15.3494 20.4925 13.8582 20.3894 13.5629C20.4709 12.8012 21.6986 12.618 20.6818 11.8693C19.3341 11.8195 20.3141 12.4344 19.9872 13.1977C19.6893 13.8935 18.3658 13.2877 17.8415 13.5019C17.8075 13.5909 17.7889 13.6537 17.7641 13.7457C17.5112 13.7975 17.305 13.693 17.0997 13.9201L17.1224 13.9877L17.3104 13.9356C17.4376 13.9811 17.4019 13.9489 17.4747 14.0487C17.265 14.2139 16.8348 14.4689 16.7569 14.7175L16.8103 14.7838L16.9944 14.7935L17.0148 14.8411C16.9323 14.939 16.8926 14.9787 16.8395 15.0993L16.8877 15.1129C17.2499 14.8417 17.1779 14.9053 17.6203 14.931C18.324 14.9719 18.6117 14.9066 18.9594 15.5877C19.0022 15.5178 19.0035 15.5115 19.0647 15.4514C19.0716 15.4618 19.0786 15.4723 19.0855 15.4828C19.1326 15.5681 19.1057 15.8202 19.0756 15.9064C19.018 16.0712 18.8771 16.1535 18.7457 16.2318C18.5037 16.376 18.3882 16.148 18.2313 16.1729C18.0218 16.2061 17.6058 16.4412 17.3906 16.4317C17.0227 16.4157 16.9954 16.0372 16.7557 15.8692C16.6536 15.7976 16.2723 15.9453 16.1273 15.8911C15.8899 15.8023 15.7594 15.5285 15.5762 15.4011C15.5602 15.39 15.2009 15.2845 15.1155 15.2517L15.0911 15.1952C15.2305 15.0358 15.402 15.0899 15.61 14.9565L15.5913 14.8768C15.3023 14.5855 15.0007 14.5391 14.668 14.3647L14.6835 14.3258C14.7414 14.1831 14.7539 14.1518 14.8649 14.0413L14.8576 13.9647C14.1479 13.7982 12.3264 15.1128 11.9004 15.1644C12.704 14.593 13.9283 13.9988 14.8668 13.6635C15.2825 13.515 15.942 13.4207 16.3431 13.26Z" fill="none"/>
<path d="M17.3925 15.0113C17.7236 14.9887 18.3952 14.9552 18.5192 15.406C18.6237 15.786 18.1503 15.9486 17.8568 16.0286C17.226 16.1298 17.0467 16.0633 16.6426 15.596C16.6594 15.5658 16.6765 15.5358 16.6941 15.506C16.9007 15.1566 17.008 15.1084 17.3925 15.0113Z" fill="#000000"/>
<path d="M14.3516 14.4129L14.4524 14.2515L14.5311 14.2383L14.6681 14.366C14.5463 14.4359 14.4778 14.4498 14.3516 14.4129Z" fill="none"/>
<path d="M12.6712 16.8633C12.7512 16.8669 12.7788 16.8991 12.8431 16.9477C13.0861 17.3227 12.6238 17.6817 12.3155 17.8167C12.1761 17.8777 12.132 17.8469 11.983 17.8291C11.8494 17.7401 11.6684 17.5558 11.5469 17.4401C12.0092 17.2295 12.309 17.2403 12.6712 16.8633Z" fill="#000000"/>
<path d="M24.7832 3C25.6403 3.62238 25.4007 3.82688 25.9735 4.56984C26.959 4.79403 27.9675 4.79656 29.0283 5.08922C32.5341 6.05621 35.6101 7.72626 38.1649 10.3416C38.4985 10.6832 39.3424 11.5299 39.5773 11.8983C39.5863 11.9126 39.5952 11.927 39.6039 11.9415C39.4645 12.0484 38.8555 13.1129 38.749 13.3294C38.2542 14.4304 37.8367 15.4106 37.4789 16.5708C37.3183 17.0914 37.3205 18.1192 37.0292 18.4104C36.9971 19.5263 36.8267 20.6011 36.825 21.7251C36.8242 22.2695 37.0668 23.7077 36.9543 24.1244C36.7101 23.8234 36.505 23.4287 36.2822 23.1292C35.995 22.7431 35.7464 22.4202 35.4736 22.0191C35.2272 21.8941 34.8932 21.4696 34.6963 21.2433C34.4567 21.0952 34.1492 20.8117 33.8853 20.6427C33.6728 20.5066 33.3615 20.3287 33.182 20.1798C32.7488 19.8328 30.9444 19.0973 30.3829 18.9202C30.0354 18.8285 28.7952 18.3514 28.6021 18.346L28.3758 18.264C27.903 18.1393 26.675 17.9034 26.3379 17.6721L26.3929 17.5391C26.1002 16.7049 26.1725 14.1798 26.11 13.2075C26.002 11.5279 26.0337 9.69001 25.7794 8.02131C25.7885 7.7272 25.5903 6.39311 25.5243 6.07488C25.4899 5.69649 25.2499 4.74798 25.2675 4.43497C25.2266 4.03956 24.959 3.36531 24.7832 3Z" fill="#000000"/>
<path d="M31.8794 13.656C32.1507 13.3528 32.3039 11.9184 32.5838 11.6424C32.8003 11.429 34.2456 11.8995 34.5721 11.8766C35.2282 11.8255 35.8805 11.7372 36.5402 11.6978C36.6504 11.6912 36.8394 11.5286 36.9033 11.4375C37.2921 11.7597 38.0546 12.9037 38.4225 12.9823C38.5489 13.1048 38.6386 13.1907 38.749 13.3277C38.2542 14.4288 37.8367 15.409 37.4788 16.5691C37.3182 17.0897 37.3204 18.1176 37.0291 18.4088C36.997 19.5246 36.8266 20.5994 36.825 21.7235C36.8242 22.2678 37.0667 23.706 36.9543 24.1227C36.71 23.8218 36.5049 23.4271 36.2821 23.1275C35.995 22.7415 35.7464 22.4185 35.4736 22.0174C35.2272 21.8924 34.8931 21.4679 34.6962 21.2416C34.4567 21.0935 34.1491 20.8101 33.8852 20.641C33.6727 20.5049 33.3615 20.327 33.182 20.1781C32.7488 19.8312 30.9444 19.0957 30.3828 18.9186C30.8065 18.0824 30.8806 17.0519 31.1719 16.1995C31.4395 15.4168 31.6093 14.3762 31.8794 13.656Z" fill="#000000"/>
<path d="M36.0707 13.9366C36.1499 13.6832 36.3412 12.7944 36.4701 12.6914C36.5677 12.766 36.5747 12.8312 36.589 12.9567C36.7948 14.7577 36.8575 16.6143 37.0293 18.4102C36.9972 19.5261 36.8268 20.6009 36.8252 21.7249C36.8244 22.2693 37.0669 23.7075 36.9545 24.1242C36.7102 23.8232 36.5051 23.4285 36.2823 23.129C35.9952 22.7429 35.7466 22.42 35.4738 22.0189C35.2274 21.8939 34.8933 21.4694 34.6964 21.2431C34.7629 21.067 34.8006 20.4787 34.8156 20.2717C34.9583 18.1611 34.823 16.0409 34.4134 13.9655C34.5318 13.8359 34.2527 13.2996 34.3108 13.0054C34.4357 12.9201 35.4982 13.0532 35.7148 13.0349C35.8038 13.0275 36.0718 12.9655 36.1738 12.9465C36.2941 13.0305 35.9792 13.6726 36.0707 13.9366Z" fill="#000000"/>
<path d="M34.4134 13.9643C34.5318 13.8347 34.2527 13.2984 34.3108 13.0041C34.4357 12.9189 35.4982 13.052 35.7148 13.0337C35.8038 13.0262 36.0718 12.9643 36.1738 12.9453C36.2941 13.0293 35.9792 13.6714 36.0707 13.9354C35.7286 15.9867 35.3694 17.8243 35.4824 19.9323C35.4994 20.2495 35.5444 21.7828 35.4738 22.0177C35.2274 21.8927 34.8933 21.4681 34.6964 21.2419C34.7629 21.0658 34.8006 20.4775 34.8156 20.2705C34.9583 18.1599 34.823 16.0397 34.4134 13.9643Z" fill="#000000"/>
<path d="M34.0828 12.4277C34.2202 12.918 34.2514 13.4735 34.4148 13.9661C34.8244 16.0415 34.9597 18.1616 34.8171 20.2722C34.8021 20.4792 34.7643 21.0675 34.6978 21.2436C34.4583 21.0955 34.1508 20.8121 33.8868 20.643C33.6744 20.5069 33.3631 20.329 33.1836 20.1801C33.2964 19.4989 33.3441 18.6495 33.4104 17.952L33.7673 14.5388C33.8282 13.9843 33.9159 12.92 34.0828 12.4277Z" fill="#000000"/>
<path d="M25.9746 4.56836C26.9601 4.79254 27.9685 4.79508 29.0294 5.08774C32.5352 6.05472 35.6112 7.72478 38.1659 10.3401C38.4996 10.6818 39.3435 11.5284 39.5784 11.8968C39.5874 11.9111 39.5962 11.9255 39.6049 11.94C39.4656 12.0469 38.8566 13.1114 38.7501 13.3279C38.6397 13.1909 38.5501 13.105 38.4236 12.9824C38.3119 12.8352 38.1496 12.6826 38.031 12.5419C35.6898 9.76659 32.5441 7.75309 29.06 6.74011C28.4087 6.55073 27.2909 6.3028 26.5665 6.2996C26.387 5.66011 26.2165 5.17676 25.9746 4.56836Z" fill="#000000"/>
<path d="M32.7842 10.0996C32.6523 10.7136 32.5315 11.2758 32.3676 11.8814C32.2263 12.4029 31.9519 13.1402 31.8806 13.6579C31.6105 14.378 31.4408 15.4187 31.1732 16.2014C30.8818 17.0538 30.8078 18.0843 30.3841 18.9204C30.0366 18.8287 28.7964 18.3515 28.6033 18.3461L28.377 18.2642C28.4374 17.9632 28.4573 17.2636 28.4817 16.9229C28.5458 16.027 28.5937 15.1291 28.6118 14.231C29.0185 12.8831 27.8932 12.7102 30.2942 12.3829C30.5992 12.3413 30.809 12.5181 31.101 12.3466C31.1825 12.4919 30.7327 12.8554 30.7836 13.1742C31.5081 11.9293 31.9661 11.2588 32.7842 10.0996Z" fill="#000000"/>
<path d="M28.6118 14.2301C29.0185 12.8822 27.8932 12.7093 30.2942 12.382C30.5992 12.3404 30.809 12.5172 31.101 12.3457C31.1825 12.491 30.7327 12.8545 30.7836 13.1733C30.1392 14.4431 29.5651 15.7473 29.0639 17.08C28.9932 17.2694 28.6903 18.2739 28.6033 18.3452L28.377 18.2633C28.4374 17.9623 28.4573 17.2627 28.4817 16.922C28.5458 16.0261 28.5937 15.1282 28.6118 14.2301Z" fill="#000000"/>
<path d="M24.7832 3C25.6403 3.62238 25.4007 3.82688 25.9735 4.56984C26.2154 5.17824 26.3859 5.6616 26.5655 6.30108C27.0543 7.80033 27.1874 9.35277 27.2897 10.9175C27.3063 11.1702 27.2831 11.2007 27.413 11.428C27.2654 12.1546 27.2423 13.1892 27.1583 13.9438C27.0529 14.8907 26.892 15.7304 26.639 16.6485C26.5969 16.8012 26.452 17.4316 26.3929 17.5391C26.1002 16.7049 26.1725 14.1798 26.11 13.2075C26.002 11.5279 26.0337 9.69 25.7794 8.02131C25.7885 7.7272 25.5903 6.39311 25.5243 6.07488C25.4899 5.69649 25.2499 4.74798 25.2675 4.43497C25.2266 4.03956 24.959 3.36531 24.7832 3Z" fill="none"/>
<path d="M28.0877 8.62891C28.6388 10.5595 28.5821 12.257 28.6106 14.2314C28.5925 15.1295 28.5446 16.0274 28.4805 16.9233C28.4561 17.264 28.4362 17.9637 28.3758 18.2646C27.903 18.1399 26.675 17.904 26.3379 17.6727L26.3929 17.5398C26.452 17.4322 26.5969 16.8018 26.639 16.6491C26.892 15.731 27.0529 14.8913 27.1583 13.9444C27.2423 13.1898 27.2654 12.1552 27.413 11.4286C27.7239 10.7432 27.849 9.38342 28.0877 8.62891Z" fill="#000000"/>
<path d="M5.27734 17.6209C6.21912 15.0339 7.53901 12.7481 9.45845 10.7501C12.9159 7.11698 17.5881 4.88118 22.5864 4.46785C23.5026 4.384 24.3631 4.45469 25.2688 4.43583C25.2512 4.74885 25.4912 5.69735 25.5256 6.07574C25.5916 6.39398 25.7898 7.72806 25.7807 8.02217C26.035 9.69087 26.0033 11.5288 26.1113 13.2083C26.1738 14.1806 26.1014 16.7057 26.3941 17.54L26.3392 17.673C25.4967 17.366 24.9939 16.7508 24.5102 16.0149C23.9385 15.6052 23.4218 15.3318 22.7781 15.0568C22.6042 14.9825 22.5129 14.9244 22.4062 14.7653C22.0666 14.389 21.6654 14.0512 21.3428 13.6567C21.3278 13.6461 21.2693 13.526 21.2726 13.523C22.8981 12.0449 20.899 10.4351 19.362 11.2963C19.1672 11.4054 19.1543 11.8929 19.1405 12.1224C18.5818 11.8875 17.739 9.94674 17.1842 10.0928C17.1651 10.3687 17.298 10.6345 17.2738 10.9759C16.506 10.9091 16.3377 10.9332 15.687 11.4154C15.4872 11.9571 15.4734 12.1691 15.5684 12.7636C14.4785 12.9626 14.2019 13.2225 13.2196 13.5748C12.8639 13.7692 12.5593 13.9362 12.2204 14.1576C11.5854 14.4507 10.9114 15.1266 10.3107 15.1677C10.3213 15.1315 11.7181 14.4537 11.9668 14.1481C12.1112 13.9707 12.2332 13.2837 12.3051 13.0381C12.4168 12.6557 12.6453 12.3342 12.7639 11.9617C12.7956 11.8618 12.8068 11.7785 12.7917 11.6734C12.523 11.2282 11.927 10.8486 11.4503 11.2316C10.5969 11.9172 9.86731 12.9099 9.19543 13.7749C8.98897 14.0407 8.55651 14.8433 8.30194 14.9714C7.88438 15.5619 7.29874 16.8898 7.00929 17.5945C6.79508 18.116 6.66937 18.7135 6.40037 19.283C6.0296 18.7126 5.64529 18.1816 5.27734 17.6209Z" fill="#000000"/>
<path d="M5.27734 17.6209C6.21912 15.0339 7.53901 12.7481 9.45845 10.7501C12.9159 7.11698 17.5881 4.88118 22.5864 4.46785C23.5026 4.384 24.363 4.45469 25.2688 4.43583C25.2512 4.74885 25.4912 5.69735 25.5256 6.07574C19.9 5.90963 15.335 7.34384 11.2063 11.2928C10.1683 12.2855 8.98902 13.7173 8.30194 14.9714C7.88438 15.5619 7.29874 16.8898 7.00929 17.5945C6.79507 18.116 6.66937 18.7135 6.40037 19.283C6.0296 18.7126 5.64529 18.1816 5.27734 17.6209Z" fill="#000000"/>
<path d="M25.7801 8.02148C26.0344 9.69018 26.0027 11.5281 26.1107 13.2076C26.1732 14.1799 26.1009 16.705 26.3936 17.5393L26.3386 17.6723C25.4961 17.3653 24.9933 16.7501 24.5096 16.0143C24.5022 15.7194 24.359 15.0673 24.325 14.6999C24.1208 12.4956 23.8072 10.8478 23.1211 8.7285C23.2955 8.85726 23.3837 8.77732 23.5609 8.70099C24.1145 8.46256 25.1816 8.35637 25.7372 8.56593L25.7763 8.58098C25.776 8.35811 25.7569 8.26537 25.7801 8.02148Z" fill="#000000"/>
<path d="M22.5431 7.26758C22.7441 7.75418 22.9577 8.22638 23.1217 8.72718C23.8078 10.8464 24.1214 12.4943 24.3256 14.6985C24.3596 15.066 24.5028 15.7181 24.5102 16.0129C23.9385 15.6032 23.4219 15.3298 22.7781 15.0548C22.6042 14.9805 22.5129 14.9224 22.4062 14.7633C22.4539 14.4764 22.4418 13.4381 22.4442 13.1115L22.459 9.65095C22.4613 9.01344 22.4542 7.85312 22.5431 7.26758Z" fill="#000000"/>
<path d="M12.2201 14.1575C12.0703 13.5947 13.0826 11.1685 13.4818 10.9844C13.6299 11.2265 13.1896 12.9204 13.2181 13.5512L13.2193 13.5747C12.8636 13.7691 12.559 13.9361 12.2201 14.1575Z" fill="none"/>
<path d="M8.30196 14.9699C8.55653 14.8418 8.98899 14.0392 9.19545 13.7733C9.86733 12.9084 10.5969 11.9156 11.4503 11.2301C11.927 10.8471 12.523 11.2266 12.7917 11.6719C12.8069 11.777 12.7957 11.8603 12.7639 11.9601C12.6453 12.3326 12.4169 12.6542 12.3051 13.0366C12.2333 13.2822 12.1112 13.9692 11.9668 14.1466C11.7181 14.4522 10.3213 15.13 10.3108 15.1662C8.36743 15.7547 8.70462 17.5606 8.64188 19.1456C8.63431 19.3358 8.64734 19.5594 8.66558 19.7487C8.814 19.8899 8.96374 20.0369 9.12048 20.1682C8.86145 20.6656 9.26002 25.7844 9.18487 26.7857C8.92447 26.4166 8.59735 24.5213 8.39188 23.8901C7.91492 22.4249 7.25531 20.5731 6.40039 19.2814C6.66939 18.712 6.7951 18.1144 7.00931 17.593C7.29876 16.8883 7.8844 15.5604 8.30196 14.9699Z" fill="#000000"/>
<path d="M9.12186 20.168C9.31368 20.2941 9.97235 20.5084 10.2306 20.6032L10.6672 20.7786C11.1636 20.9955 11.3855 21.0783 11.9204 21.1635C11.9589 21.8477 11.895 22.7319 11.8533 23.4245C11.805 24.2259 11.6096 24.9449 11.7783 25.7501L11.5252 28.2483C11.1135 28.1627 10.701 28.0818 10.2876 28.0054C10.0075 27.9849 9.39956 27.9395 9.14551 27.8608C9.19917 27.8388 9.19856 27.8303 9.24479 27.7909C9.25894 27.4852 9.21389 27.0976 9.18624 26.7855C9.26139 25.7841 8.86283 20.6653 9.12186 20.168Z" fill="#000000"/>
<path d="M10.6647 20.7793C11.1611 20.9962 11.3831 21.0791 11.918 21.1643C11.9564 21.8484 11.8926 22.7326 11.8508 23.4252C11.8025 24.2266 11.6071 24.9456 11.7758 25.7509L11.5227 28.249C11.1111 28.1634 10.6985 28.0825 10.2852 28.0061C10.6441 27.1043 10.542 23.4428 10.5363 22.3449C10.7581 22.0166 10.6796 21.1965 10.6647 20.7793Z" fill="none"/>
<path d="M10.2285 20.6035L10.6651 20.7789C10.6799 21.1961 10.7584 22.0162 10.5367 22.3444C10.4333 21.8303 10.2778 21.1092 10.2285 20.6035Z" fill="#000000"/>
<path d="M12.5775 21.1545C13.3446 21.0631 13.2668 21.3221 13.5329 21.9771C13.5864 22.1087 13.6751 22.2777 13.7434 22.4058C13.9411 22.8154 14.0989 23.1502 14.2195 23.5911C14.06 23.8675 13.6626 25.2491 13.5085 25.6665C13.221 26.6551 13.1356 27.5251 12.9865 28.5343C12.8591 28.5156 12.7161 28.4755 12.5897 28.4441C12.244 28.3921 11.8694 28.3137 11.5234 28.2481L11.7766 25.75C11.6079 24.9448 11.8033 24.2257 11.8516 23.4244C11.8933 22.7318 11.9571 21.8475 11.9187 21.1634L12.5775 21.1545Z" fill="#000000"/>
<path d="M11.9185 21.1652L12.5773 21.1562C12.1965 22.7154 12.2014 24.1375 11.7764 25.7518C11.6076 24.9466 11.803 24.2275 11.8513 23.4261C11.8931 22.7336 11.9569 21.8493 11.9185 21.1652Z" fill="none"/>
<path d="M13.7428 22.4062C13.9405 22.8159 14.0982 23.1507 14.2189 23.5916C14.0594 23.868 13.6619 25.2496 13.5079 25.667L13.2871 25.4994C13.4438 24.7905 13.5335 22.9066 13.7428 22.4062Z" fill="#000000"/>
<path d="M13.288 25.5L13.5087 25.6676C13.2212 26.6562 13.1357 27.5262 12.9867 28.5354C12.8593 28.5167 12.7163 28.4766 12.5898 28.4452C12.9329 27.7973 13.1494 26.2909 13.288 25.5Z" fill="none"/>
<path d="M15.4967 29.0639C15.4222 28.7415 15.085 27.9412 15.1616 27.7344C15.4235 27.7957 16.0752 28.74 16.2278 28.9928C16.3999 29.0354 16.6129 29.0989 16.7854 29.0953L16.7509 29.1924C16.9093 29.4237 17.0911 29.6299 17.2613 29.8542C17.773 30.5287 17.9234 31.3591 18.2567 32.0944C18.4866 32.8008 18.8745 34.2412 18.776 35.0088C18.7589 35.1423 18.3871 35.278 18.2517 35.2965C18.0462 35.3052 17.8131 35.3206 17.6098 35.3181C17.4618 34.8239 17.1015 34.1436 16.8894 33.4372C16.4738 31.9053 16.0716 30.5426 15.4967 29.0639Z" fill="none"/>
<path d="M17.6348 32.1945C17.9112 32.1953 17.9988 32.2013 18.2569 32.0938C18.4868 32.8002 18.8747 34.2405 18.7762 35.0082C18.7591 35.1416 18.3873 35.2774 18.2519 35.2958C18.17 35.0541 18.0694 34.3237 18.0211 34.0387C17.9214 33.4182 17.7925 32.8028 17.6348 32.1945Z" fill="#000000"/>
<path d="M16.2266 28.9922C16.3987 29.0347 16.6117 29.0983 16.7841 29.0947L16.7496 29.1918C16.9081 29.4231 17.0899 29.6293 17.26 29.8535C17.7718 30.5281 17.9221 31.3585 18.2554 32.0938C17.9974 32.2014 17.9098 32.1954 17.6333 32.1946C17.5338 31.8898 17.3874 31.5868 17.288 31.2851C17.0182 30.4654 16.5671 29.7789 16.2266 28.9922Z" fill="#000000"/>
<path d="M14.2194 23.5918C14.5339 23.8962 14.8586 24.9563 15.0767 25.4298C14.9346 25.727 14.73 26.7878 14.6432 27.1725C14.5112 27.7576 14.3615 28.2776 14.2084 28.8566C13.885 28.836 13.2748 28.6793 12.9863 28.535C13.1354 27.5258 13.2209 26.6558 13.5084 25.6672C13.6624 25.2498 14.0599 23.8682 14.2194 23.5918Z" fill="#000000"/>
<path d="M14.209 28.8584C14.362 28.2794 14.5117 27.7595 14.6437 27.1743C14.7305 26.7896 14.9351 25.7289 15.0772 25.4316C15.5946 26.389 16.186 28.2186 16.7849 29.0966C16.6124 29.1001 16.3994 29.0366 16.2273 28.9941C16.0747 28.7412 15.423 27.7969 15.1612 27.7356C15.0845 27.9424 15.4217 28.7428 15.4962 29.0652C15.0593 29.014 14.6411 28.936 14.209 28.8584Z" fill="#000000"/>
<path d="M17.2731 10.9749C17.2973 10.6335 17.1644 10.3677 17.1835 10.0918C17.7383 9.94575 18.5811 11.8865 19.1398 12.1214C19.1694 12.3265 19.2028 12.5311 19.2398 12.7349C19.0009 12.7322 17.8836 12.7706 17.7794 12.6213C18.2429 11.8981 18.0892 11.2721 17.2731 10.9749Z" fill="none"/>
<path d="M16.1626 36.7812C16.4522 36.9524 16.5672 37.0024 16.9036 37.0823C16.7706 37.4702 16.6814 37.5852 16.8039 37.9718C16.6337 37.8619 16.3885 37.6717 16.1667 37.7093C15.8739 37.7589 15.8332 37.9788 15.6562 38.1093C15.7575 37.772 16.013 37.0984 16.1626 36.7812Z" fill="#000000"/>
<path d="M27.5673 35.457C27.8712 35.4655 28.1197 35.8127 28.467 35.98C27.9604 36.0467 27.3336 36.0945 26.8622 36.2563L26.5487 36.7711L25.9053 36.7725C25.4185 36.7488 25.3107 36.549 25.1016 36.1518C25.7128 35.7746 26.6437 35.8224 27.5673 35.457Z" fill="#000000"/>
<path d="M21.8124 32.6758C22.1288 33.6493 22.7189 34.4574 22.1944 35.5598C22.1417 35.6706 21.8477 36.0935 21.7619 36.1653C21.6876 36.0569 21.6007 36.0414 21.4746 35.9932C21.7018 35.6035 21.7873 33.2857 21.8124 32.6758Z" fill="#000000"/>
<path d="M25.4684 33.8398C25.9663 34.3038 26.5984 34.6716 27.2022 34.9771C26.9282 35.0429 26.7025 35.0861 26.4245 35.1327C25.9205 35.2074 25.4178 35.2635 24.9316 35.4124C25.2109 34.8802 25.3814 34.4325 25.4684 33.8398Z" fill="#000000"/>
<path d="M21.4748 35.9941C21.6009 36.0423 21.6879 36.0578 21.7622 36.1662C21.5405 36.6041 21.4522 36.7042 21.0796 37.0167L21.0625 36.2464C21.2046 36.1656 21.3368 36.0815 21.4748 35.9941Z" fill="#000000"/>
</svg>
