<svg width="48" height="48" viewBox="0 0 48 48" fill="#000000" xmlns="http://www.w3.org/2000/svg">
<path d="M19.9582 12.004C22.589 11.9582 24.5719 12.2982 26.9377 13.5484C27.753 13.9791 28.3803 14.3304 29.1188 14.9062C28.9438 15.352 28.1204 16.3704 27.7376 16.694C27.5419 16.8595 26.4941 16.0813 26.2439 15.926C25.5048 15.4725 24.7097 15.1174 23.8787 14.8697C18.1092 13.0899 11.7544 16.276 9.96206 22.0747C9.14319 24.7238 9.36362 27.6804 10.6834 30.1285C12.0991 32.7637 14.5059 34.7265 17.3718 35.5834C20.0642 36.3917 23.3246 36.0675 25.8062 34.7319C26.4718 34.3574 27.1267 33.9694 27.7099 33.4757C28.0082 33.2232 28.2503 32.9731 28.5418 32.7172C28.621 32.7647 28.6987 32.8145 28.7748 32.8667C29.0256 33.0413 30.3731 34.0028 30.4066 34.1897C30.3989 34.306 30.3632 34.3755 30.284 34.4616C28.5329 36.3655 25.9849 37.5391 23.5033 38.1295C22.8184 38.2848 22.1266 38.3229 21.4304 38.3741C14.1073 38.9124 7.38618 33.3947 7.0183 25.9489C6.83116 22.381 8.08537 18.8874 10.4991 16.2533C10.6492 16.0896 10.8762 15.9386 11.0421 15.7785C13.4408 13.4546 16.62 12.1087 19.9582 12.004Z" fill="#000000"/>
<path d="M16.8685 16.4239C17.435 16.2602 17.8793 16.0991 18.4684 15.9725C20.1991 15.6006 22.5491 15.7251 24.1839 16.426C25.0374 16.7019 25.9377 17.2918 26.6467 17.8301C26.4624 18.2458 25.9853 18.8807 25.6457 19.177C25.3009 19.0237 24.9414 18.7801 24.6128 18.584C22.2908 17.1988 19.4465 17.1235 16.9921 18.3252C15.1453 19.223 13.7348 20.8229 13.0756 22.7677C12.4263 24.6643 12.5532 26.7406 13.4285 28.544C14.3593 30.4246 16.0047 31.854 17.9971 32.5127C20.4634 33.3468 23.5319 32.845 25.5272 31.1852C25.824 30.9384 25.9098 30.7937 26.2781 30.6118C26.5513 30.7186 27.5309 31.379 27.5485 31.6623C27.3289 32.2374 25.4539 33.4413 24.8553 33.7109C22.3392 34.8293 19.4847 34.9155 16.9057 33.9513C14.5935 33.0762 12.7215 31.3217 11.6986 29.071C10.6764 26.7442 10.6148 24.1078 11.5272 21.7359C12.0157 20.4672 12.3156 19.9569 13.2402 18.988C14.4443 17.7263 15.285 17.1279 16.8685 16.4239Z" fill="#000000"/>
<path d="M23.2206 24.6412C23.6374 24.4809 24.9321 23.6681 25.3659 23.4104L28.9043 21.3323C29.3142 21.0906 29.8287 20.8468 30.2691 20.5947L34.6015 18.0804C37.2344 16.5583 39.8819 14.9713 42.5444 13.5L42.7111 13.6148L27.8997 25.658L24.868 28.108C24.4823 28.4228 23.0919 29.641 22.7059 29.7103C22.558 29.5873 22.3039 29.1714 22.1972 28.9898C21.2484 27.3604 20.3481 25.7126 19.3387 24.1189C18.9649 23.5287 18.6068 22.8094 18.2733 22.1903C17.9881 21.6609 17.5269 21.0321 17.3203 20.5075C17.5503 20.628 18.034 21.0147 18.2817 21.1844C19.4491 21.9939 20.6064 22.8179 21.7533 23.6563C22.0672 23.8834 22.9001 24.503 23.2206 24.6412Z" fill="#000000"/>
<path d="M42.5449 13.5002L42.8697 13.3496L42.8536 13.5321L42.7116 13.6149L42.5449 13.5002Z" fill="#000000" fill-opacity="0.972549"/>
<path d="M42.8696 13.3495L42.9711 13.293L43.0006 13.3344C42.9574 13.4465 42.9479 13.4572 42.8535 13.532L42.8696 13.3495Z" fill="#000000" fill-opacity="0.858824"/>
</svg>
