<svg width="48" height="48" viewBox="0 0 48 48" fill="#000000" xmlns="http://www.w3.org/2000/svg">
<path d="M4.77347 19.0024C5.19907 18.9768 5.39986 19.1556 5.68952 19.4371C6.02969 19.7676 6.36327 20.1057 6.69948 20.4403L8.98598 22.7154L11.3234 25.0352C11.7659 25.4733 12.2251 25.9052 12.6392 26.3672C12.9033 26.6617 12.9137 27.1483 12.6417 27.439C12.4618 27.631 12.2718 27.7568 12.0028 27.7634C11.5276 27.7751 11.0524 27.7692 10.5776 27.7685L7.89386 27.767L5.83978 27.7687C5.47748 27.7691 5.05271 27.7918 4.69897 27.7505C4.25167 27.6984 4.0417 27.2821 4.01705 26.8831L4.015 26.7082L4.01302 24.7859C4.01301 24.2692 3.91098 23.5935 4.27829 23.2069C4.75211 22.7081 5.56911 22.978 5.73487 23.606C5.79849 23.847 5.77075 24.3128 5.77023 24.575L5.76609 26.0349C7.11093 26.0544 8.49073 26.0297 9.84432 26.04L5.91689 22.1267L4.96108 21.1778C4.68486 20.907 4.09708 20.4017 4.02589 20.0392C3.98094 19.8157 4.02652 19.5834 4.15262 19.3935C4.30745 19.1631 4.50839 19.0546 4.77347 19.0024Z" fill="#000000"/>
<path d="M16.9472 20.953C17.7844 20.8161 18.6715 21.298 19.1542 21.9648L19.1473 21.0692L19.9598 21.0712L19.955 24.6259C19.9559 25.2744 19.9981 26.0068 19.9247 26.6435C19.6866 28.6182 17.554 29.5376 15.8417 28.6767C15.1574 28.3326 14.9284 27.9379 14.6854 27.2353L15.4227 27.2401L15.5858 27.2333C16.1565 28.2817 17.6027 28.4453 18.4901 27.6835C19.109 27.152 19.0523 26.2769 19.078 25.5321C19.0345 25.5914 18.9906 25.651 18.9452 25.7089C18.1282 26.7388 16.6065 26.727 15.6229 25.9472C13.7837 24.4889 14.5214 21.2194 16.9472 20.953ZM17.16 21.7196C16.0493 21.796 15.378 22.859 15.4511 23.9101C15.4848 24.4452 15.731 24.945 16.1347 25.2978C16.4795 25.5944 16.9243 25.7485 17.3788 25.7304C17.9125 25.629 18.3814 25.3894 18.6952 24.9296C19.0114 24.4569 19.127 23.8781 19.0165 23.3202C18.8471 22.4289 18.1001 21.685 17.16 21.7196Z" fill="#000000"/>
<path d="M34.3651 20.9542C35.3006 20.8869 35.9582 21.2001 36.5614 21.923C36.5473 21.6387 36.5396 21.3541 36.5379 21.0695L37.3748 21.0734L37.369 24.6407C37.3694 25.2865 37.4018 26.0026 37.3426 26.6388C37.2444 27.6896 36.5213 28.5201 35.5448 28.8448C34.7811 29.0962 33.949 29.0308 33.2342 28.6632C32.5962 28.3416 32.3265 27.8836 32.1131 27.2335L32.7782 27.2394C32.8471 27.2371 32.9958 27.2216 33.035 27.2882C33.7962 28.5992 35.9683 28.3935 36.3934 26.8947C36.5414 26.3729 36.5258 26.0625 36.533 25.5392C36.4131 25.6503 36.2973 25.7943 36.1746 25.9122C35.2835 26.7684 33.9652 26.657 33.0262 25.9298C31.8627 25.0285 31.7071 23.0974 32.6043 21.9611C33.0431 21.4055 33.6576 21.0328 34.3651 20.9542ZM34.6073 21.7208C34.1556 21.7506 33.7337 21.9572 33.4324 22.295C33.0231 22.7554 32.8513 23.2855 32.8885 23.8966C32.9221 24.4387 33.1703 24.945 33.578 25.3038C33.9138 25.5995 34.3744 25.7488 34.8192 25.7306C35.0862 25.682 35.2564 25.6321 35.5076 25.4894C37.147 24.5573 36.6784 21.9797 34.8045 21.7247C34.7486 21.7171 34.6663 21.7177 34.6073 21.7208Z" fill="#000000"/>
<path d="M22.9665 20.9539C23.7875 20.8557 24.6749 21.2665 25.1433 21.9422L25.1267 21.0672L25.946 21.0711L25.9431 26.3787C25.7145 26.368 25.3731 26.3865 25.1335 26.3933L25.1355 25.491C25.0102 25.6426 24.9154 25.7642 24.7673 25.8933C23.8028 26.7158 22.5409 26.7099 21.5632 25.8982C19.7978 24.4323 20.563 21.1874 22.9665 20.9539ZM23.1511 21.741C21.4295 21.9123 20.8793 24.2459 22.1726 25.2957C22.5055 25.5657 22.9762 25.7167 23.4001 25.6834C25.1867 25.403 25.6819 23.2076 24.28 22.1072C23.9881 21.8783 23.5208 21.7016 23.1511 21.741Z" fill="#000000"/>
<path d="M40.4415 20.9552C42.1412 20.8535 43.2877 22.0662 43.376 23.7052C43.38 23.781 43.3875 23.8596 43.3926 23.9356C41.947 23.9755 40.3404 23.9523 38.8887 23.9425C38.8979 24.0162 38.9093 24.09 38.9219 24.1632C39.1171 25.2474 40.3367 26.0442 41.3995 25.6153C41.7474 25.4749 41.9574 25.337 42.1749 25.0196C42.2489 24.9065 42.2895 24.843 42.3487 24.7188C42.6571 24.7187 42.966 24.7203 43.2745 24.7247C43.0657 25.1593 43.16 25.1401 42.8116 25.5772C42.3937 26.1013 41.7672 26.4316 41.0977 26.4942C40.3298 26.5676 39.5641 26.3333 38.9678 25.8438C37.6492 24.7466 37.7262 22.5145 39.1065 21.4962C39.5364 21.179 39.907 21.0028 40.4415 20.9552ZM40.5089 21.7198C39.6988 21.8328 39.1702 22.4504 38.918 23.1935C39.5432 23.2169 40.2575 23.1976 40.8897 23.1935L42.4366 23.1915C42.1902 22.2971 41.4724 21.6421 40.5089 21.7198Z" fill="#000000"/>
<path d="M30.4404 21.0645C30.7331 21.0651 31.0259 21.0672 31.3186 21.0708C31.3072 21.5002 31.3126 21.9534 31.3109 22.3846L31.3144 26.3726C31.0385 26.3719 30.7431 26.3864 30.4628 26.3888C30.4588 26.1866 30.4574 25.9843 30.4584 25.782C30.4317 25.8111 30.4046 25.8397 30.3768 25.8678C29.9867 26.2701 29.4516 26.4991 28.8914 26.5036C28.7715 26.5042 28.6532 26.498 28.5353 26.476C26.637 26.1217 26.8485 24.4051 26.8527 22.9534V21.0677C27.1321 21.0631 27.4197 21.0682 27.6998 21.0698L27.7008 23.2689C27.6996 23.7276 27.6662 24.2404 27.7406 24.6854C27.9418 25.8479 29.2888 26.0476 30.0557 25.2915C30.5485 24.8057 30.4381 23.9096 30.4375 23.2642L30.4404 21.0645Z" fill="#000000"/>
<path d="M9.18431 19.0006C9.54472 18.9897 9.87138 19.1405 10.0979 19.417C10.5379 19.9541 12.6771 21.7733 12.8129 22.2848C12.8728 22.5017 12.842 22.7335 12.7278 22.9272C12.5873 23.1657 12.3923 23.3014 12.1294 23.3696C11.5216 23.43 11.3326 23.1273 10.9356 22.732L10.1753 21.9771L9.2145 21.0271C9.03169 20.8457 8.83406 20.6657 8.66998 20.4686C8.19188 19.8943 8.46845 19.1536 9.18431 19.0006Z" fill="#000000"/>
</svg>
