<svg width="48" height="48" viewBox="0 0 48 48" fill="#000000" xmlns="http://www.w3.org/2000/svg">
<path d="M5.43228 16H47.7942C47.7007 16.1378 47.09 16.7311 46.9277 16.8952L44.5295 19.2782C44.2988 19.5072 43.6115 20.1593 43.4391 20.379C43.3895 20.7768 43.4099 21.5541 43.4103 21.9729L43.4119 24.7166L43.4115 29.3869C43.4113 30.2209 43.3891 31.1733 43.4204 32H1V20.4345C1.80077 19.5885 2.69609 18.7217 3.52463 17.8946C4.11907 17.3011 4.83193 16.5492 5.43228 16ZM17.0203 24.148C17.2334 23.9333 17.4643 23.7119 17.6698 23.4929C17.867 23.3085 18.0832 23.1135 18.2692 22.9202C18.1288 22.763 17.1604 21.7484 17.0288 21.6806C17.062 22.0165 17.0412 22.5735 17.0425 22.9251C17.0436 23.2239 17.0588 23.875 17.0203 24.148Z" fill="#000000"/>
<path d="M6.32593 17.9748C7.20321 17.9339 8.38836 17.9694 9.28191 17.9694L15.0616 17.9704L15.0645 21.2424L9.79074 21.2386L8.26003 21.2411C8.01536 21.2425 7.63094 21.2607 7.39855 21.2386C7.12433 21.544 6.5788 22.0421 6.26325 22.3602C6.26762 23.7717 6.22517 25.3423 6.27846 26.7375L11.7446 26.7389C11.7581 26.3802 11.7621 26.0212 11.7566 25.6623L10.6823 25.6631C9.60196 24.5821 8.42324 23.4419 7.37878 22.3341C8.17176 22.3639 9.14044 22.3374 9.95072 22.3375L15.0609 22.3356L15.0641 28.917C15.2189 28.7704 15.3867 28.5859 15.5386 28.4314L19.857 24.1246L21.0148 22.9646C21.2094 22.7695 21.4104 22.5589 21.6187 22.378C21.669 22.3343 21.7518 22.3382 21.8186 22.3376L28.2284 22.3356C28.2437 23.4332 28.2364 24.5681 28.2325 25.6669C27.7579 25.6366 27.0962 25.6558 26.6034 25.6547C25.3092 25.6631 24.015 25.6648 22.7206 25.6598C22.4872 25.9323 21.9245 26.4539 21.6482 26.7265C21.879 26.7469 22.2053 26.7379 22.4466 26.7379L23.7913 26.7377L28.235 26.7395C28.2485 27.8262 28.2345 28.9375 28.2391 30.0283C27.5147 30.0018 26.6509 30.0255 25.9147 30.0258L21.5464 30.0239L9.09553 30.0235C7.07596 30.0234 4.97925 30.0547 2.96875 30.0225L2.96982 21.2519C3.24018 21.0124 3.5455 20.6893 3.80548 20.4313L5.41985 18.8199C5.55638 18.6832 6.20623 17.9942 6.32593 17.9748Z" fill="none"/>
<path d="M29.397 17.9777C32.5013 17.9321 35.6248 17.9969 38.731 17.9716C39.9806 17.9615 41.2723 17.9511 42.5203 17.9808C42.3413 18.1863 42.0311 18.4777 41.8325 18.6759L40.4912 20.0107L39.1074 21.3881C38.8011 21.695 38.4653 22.0465 38.1458 22.3342C39.2356 22.3486 40.3472 22.3368 41.4384 22.3361C41.4954 24.8764 41.4133 27.4824 41.4528 30.0326C41.0407 30.0214 40.5955 30.0289 40.181 30.0286L29.3515 30.0262C29.3193 27.4969 29.3387 24.8767 29.3525 22.345C30.7545 22.3078 32.3233 22.3352 33.7347 22.3397C33.9807 22.1486 34.6054 21.5017 34.8467 21.2558C33.6657 21.2426 32.4846 21.2374 31.3036 21.2404C30.6926 21.2411 29.9527 21.2638 29.3509 21.2403C29.3317 20.4694 29.3575 19.6862 29.3479 18.9141C29.3445 18.6335 29.339 18.2801 29.3623 18.0027L29.397 17.9777Z" fill="none"/>
<path d="M32.6445 25.6504C33.3922 25.6768 34.2043 25.654 34.9566 25.6519L38.1393 25.6596C38.1441 25.9943 38.1455 26.4045 38.1231 26.7337C38.0088 26.7462 37.6915 26.738 37.5564 26.7381L36.4096 26.7383L32.6592 26.7396C32.6466 26.3864 32.6486 26.0055 32.6445 25.6504Z" fill="#000000"/>
<path d="M16.5562 17.9771L28.2357 17.9707L28.2353 21.2487L27.9786 21.2424C25.1609 21.2317 22.2532 21.2109 19.4402 21.2518C18.3348 20.199 17.2496 19.0595 16.1523 17.9868L16.5562 17.9771Z" fill="none"/>
</svg>
