<svg width="48" height="48" viewBox="0 0 48 48" fill="#000000" xmlns="http://www.w3.org/2000/svg">
<path d="M22.9376 34.0174H23.9978V28.8116H22.939L22.9376 34.0174ZM13.4859 27.1011L13.1586 26.0932L18.1086 24.4845L18.4359 25.4951L13.4859 27.1039M19.8728 19.1811L16.8148 14.9695L17.6728 14.3466L20.7308 18.5569L19.8728 19.1811ZM27.1809 19.2196L26.3229 18.5954L29.3822 14.3851L30.2403 15.008L27.1809 19.2196ZM33.4949 27.1671L28.5449 25.5584L28.8721 24.5491L33.8221 26.1579L33.4949 27.1671ZM23.5 7.00138C14.4016 7.00138 7 14.403 7 23.4973C7 32.5984 14.4016 40 23.5 40C32.5984 40 40 32.5998 40 23.5C40 14.4016 32.5984 7 23.5 7V7.00138ZM23.5 10.3426C30.7655 10.3426 36.6574 16.2318 36.6574 23.4973C36.6574 30.7669 30.7655 36.6601 23.5 36.6601C16.2318 36.6601 10.3413 30.7669 10.3413 23.4973C10.3413 16.2318 16.2331 10.3426 23.5 10.3426ZM25.634 21.2876L26.4246 23.7186L27.4517 24.0514L33.9638 21.9366L32.7812 18.2998L26.2692 20.4159L25.634 21.289M26.0974 24.7265L24.0294 26.2294V27.3088L28.054 32.85L31.1478 30.6005L27.1231 25.0606L26.0974 24.7265ZM22.9693 26.2294L20.9012 24.7265L19.8741 25.0606L15.8495 30.6005L18.9432 32.8486L22.9693 27.3088V26.2294ZM20.5754 23.72L21.3646 21.2904L20.7294 20.4173L14.2174 18.2998L13.0349 21.938L19.5483 24.0555L20.5754 23.72ZM22.2226 20.6675H24.7788L25.414 19.793V12.9455H21.5887V19.793L22.2226 20.6675Z" fill="#000000"/>
</svg>
