<svg width="48" height="48" viewBox="0 0 48 48" fill="#000000" xmlns="http://www.w3.org/2000/svg">
<path d="M14.2625 18.9765C14.4689 18.9821 14.6814 18.976 14.8884 18.9727L14.8834 19.4454L14.8835 23.0484C14.8835 23.7218 14.9021 24.4376 14.8627 25.1014C14.802 26.1228 14.2203 27.1262 13.2612 27.5573C12.0444 28.1043 10.1865 28.0512 9.18322 27.0678C8.5695 26.4664 8.31703 25.6117 8.30685 24.7689C8.29029 22.84 8.32164 20.9079 8.29883 18.979L8.93835 18.9782C8.92624 19.1926 8.92942 19.4125 8.92962 19.6274C8.93087 21.0407 8.92985 22.4545 8.92869 23.8678C8.92823 24.401 8.90571 24.9483 9.0144 25.4715C9.28719 26.7247 10.2447 27.3142 11.4679 27.3516C12.7278 27.4303 13.9459 26.8158 14.1837 25.4853C14.3139 24.7569 14.2598 23.8586 14.2597 23.0969L14.2625 18.9765Z" fill="#000000"/>
<path d="M19.7616 21.1216C20.3397 21.0286 21.2353 21.2353 21.6515 21.6507C22.316 22.314 22.2642 23.216 22.2702 24.0742C22.279 25.3107 22.2542 26.5488 22.2732 27.7828L21.6783 27.7799L21.6782 25.1087C21.6785 24.3889 21.7184 23.6205 21.6217 22.9117C21.4338 21.5337 19.9638 21.5014 18.9276 21.8155C17.4466 22.4162 17.7119 24.2672 17.7125 25.5893L17.7115 27.783C17.5169 27.7781 17.3082 27.7815 17.1124 27.7812L17.1113 21.236L17.6318 21.2346C17.6646 21.5454 17.7023 21.8556 17.745 22.1652C18.2961 21.3994 18.8469 21.1968 19.7616 21.1216Z" fill="#000000"/>
<path d="M27.5039 19.6576L27.8101 19.6543L27.8097 21.2358L29.7364 21.2344L29.736 21.7583L27.8085 21.7586C27.8186 22.7611 27.7999 23.7711 27.8083 24.7746C27.8178 25.3215 27.7802 25.8584 27.8506 26.4028C27.9982 27.543 28.9787 27.4299 29.8395 27.2836L29.8781 27.2846C29.9047 27.3236 29.8985 27.6807 29.9 27.7573C29.5372 27.855 29.2876 27.8898 28.9134 27.8959C26.951 27.928 27.2007 26.1858 27.2005 24.8246L27.2013 21.7585C26.8822 21.753 26.5506 21.7575 26.2304 21.7576L26.2285 21.4108C26.4862 21.3196 26.9196 21.2131 27.1945 21.1366C27.3131 20.7103 27.3919 20.1162 27.5039 19.6576Z" fill="#000000"/>
<path d="M24.3802 21.236C24.5826 21.2366 24.785 21.2347 24.9874 21.2305L24.9832 27.7842C24.7943 27.7746 24.5766 27.7801 24.3852 27.7809C24.353 25.6159 24.3968 23.4085 24.3802 21.236Z" fill="#000000"/>
<path d="M24.5629 18.8524C25.2066 18.7922 25.2246 19.7369 24.8099 19.9882C24.1812 20.1232 24.1367 19.1029 24.5629 18.8524Z" fill="#000000"/>
<path d="M38.6411 17H39.5153C40.0387 17.107 40.7871 17.1431 41.3013 17.4025C41.4848 17.4489 41.833 17.6089 42.0061 17.6963C43.0949 18.2471 44.006 19.0941 44.6343 20.1396C45.0197 20.7806 45.2905 21.4839 45.4338 22.2178C45.482 22.4771 45.5022 22.767 45.551 23.007V23.9126C45.4679 24.3506 45.4858 24.5597 45.3582 25.0598C44.9651 26.5856 44.0305 27.9166 42.7283 28.8046C41.3107 29.7701 39.5657 30.1296 37.8817 29.8032C37.2469 29.6828 36.7867 29.5108 36.2053 29.2421C35.9647 29.1132 35.7349 28.9866 35.5068 28.8355C34.0729 27.881 33.0795 26.3941 32.7465 24.7048C32.4188 23.0381 32.7602 21.3094 33.697 19.8923C34.5622 18.5801 35.8781 17.6297 37.3961 17.2206C37.9039 17.0872 38.1861 17.0914 38.6411 17Z" fill="#000000"/>
<path d="M41.303 17.4023C41.4865 17.4488 41.8347 17.6088 42.0078 17.6961C43.0966 18.247 44.0077 19.0939 44.636 20.1395C45.0214 20.7804 45.2921 21.4837 45.4355 22.2177C45.4837 22.477 45.5039 22.7668 45.5527 23.0069V23.9125C45.4696 24.3504 45.4875 24.5595 45.3599 25.0597C44.9668 26.5855 44.0322 27.9164 42.73 28.8045C41.3124 29.7699 39.5674 30.1295 37.8834 29.8031C37.2486 29.6827 36.7884 29.5107 36.207 29.242C36.2401 28.7457 36.2199 27.9109 36.2099 27.4013C37.6629 28.1112 40.3431 28.163 41.3845 26.6904C42.1753 25.5724 42.1426 23.6306 40.9298 22.7947C39.9535 22.1219 38.884 22.2117 37.776 22.389C37.8167 21.702 37.9085 20.9096 37.9725 20.2141L41.2995 20.2142C41.3011 19.7946 41.3001 19.3749 41.2966 18.9553C41.2785 18.502 41.2993 17.8674 41.303 17.4023Z" fill="#000000"/>
<path d="M36.7268 18.9548C38.237 18.9392 39.786 18.9522 41.2971 18.9554C41.3007 19.375 41.3017 19.7946 41.3001 20.2143L37.9731 20.2141C37.9091 20.9097 37.8173 21.7021 37.7765 22.3891C38.8846 22.2118 39.9541 22.1219 40.9304 22.7948C42.1432 23.6306 42.1758 25.5724 41.385 26.6905C40.3436 28.1631 37.6635 28.1112 36.2105 27.4014C36.1875 27.1988 36.2068 26.3676 36.2072 26.1144C37.207 26.6454 39.3463 27.1404 40.1799 26.0192C40.6142 25.4354 40.5633 24.2036 39.8867 23.7839C39.0392 23.2582 37.9488 23.4459 37.02 23.6229L36.3871 23.2492C36.5255 21.8485 36.6136 20.3646 36.7268 18.9548Z" fill="none"/>
<path d="M5.34711 18.9787C5.55549 18.9789 5.76385 18.9775 5.97221 18.9746L5.96901 25.3317L5.97038 27.083C5.97082 27.8903 6.03963 28.847 5.42118 29.4802C5.0974 29.8117 4.69082 29.9077 4.25519 30.0001H3V29.3055C4.03329 29.5583 5.21053 29.5051 5.33198 28.1517C5.36666 27.7653 5.35139 27.3733 5.35124 26.9852L5.35022 25.181C5.34923 23.1285 5.37507 21.0266 5.34711 18.9787Z" fill="#000000"/>
</svg>
