<svg width="48" height="48" viewBox="0 0 48 48" fill="#000000" xmlns="http://www.w3.org/2000/svg">
<path d="M22.1847 22.6085C22.3733 22.5313 22.7723 22.4699 22.9862 22.4339C24.6114 22.1653 26.2794 22.3594 27.7992 22.9939C29.9389 23.8972 31.4543 25.6135 32.2929 27.7659C33.2049 30.1075 32.9348 33.5007 31.3647 35.5279C31.1772 35.8557 30.9441 36.0782 30.7265 36.377C30.9012 36.6413 30.8278 37.7298 30.7694 38.0401C30.6435 38.7099 29.9756 40.229 29.3873 40.6047C29.0371 41.0512 28.3978 41.3725 27.8888 41.6075C25.585 42.6708 22.8703 41.4834 21.9193 39.0903C21.7861 39.008 21.2004 38.8149 21.0011 38.7329C20.0425 38.3385 19.3602 37.9386 18.6254 37.2134C18.3157 37.1547 17.8984 37.1495 17.5215 37.0786C16.238 36.8422 15.1003 36.1072 14.3575 35.0343C12.7786 32.7138 13.3765 29.6135 15.6079 27.9346C15.9085 27.7085 16.2714 27.5529 16.59 27.3371C16.7269 27.2014 17.0502 26.4586 17.2033 26.2221C18.0239 24.953 19.2916 23.8799 20.6139 23.1639C21.0877 22.9075 21.6856 22.7428 22.1847 22.6085Z" fill="#000000"/>
<path d="M16.59 27.3373C16.616 27.3221 16.6428 27.308 16.67 27.2951C17.0587 27.11 17.8936 26.9079 18.3373 27.063L18.6526 27.1422C20.1309 28.0578 20.7365 29.5874 21.1644 31.2321C21.5112 32.5651 21.5446 34.7617 20.8315 36.0031C20.8014 36.0554 20.7115 36.1955 20.67 36.2325C20.6565 36.2654 20.611 36.3703 20.6036 36.3996C19.8769 37.0479 19.5602 37.0388 18.6254 37.2136C18.3157 37.1549 17.8984 37.1496 17.5215 37.0788C16.238 36.8424 15.1003 36.1074 14.3575 35.0345C12.7786 32.714 13.3765 29.6136 15.6079 27.9348C15.9085 27.7087 16.2714 27.5531 16.59 27.3373Z" fill="none"/>
<path d="M16.59 27.3373C16.616 27.3221 16.6428 27.308 16.67 27.2951C17.0587 27.11 17.8936 26.9079 18.3373 27.063C18.1762 27.1114 17.7354 27.0552 17.6708 27.1096C16.7463 27.8877 15.678 28.3363 15.0313 29.4136C14.3633 30.5489 14.1674 31.901 14.4852 33.1793C15.0144 35.2894 17.1053 36.5929 19.1587 36.5478C19.4927 36.5405 19.863 36.5694 20.186 36.6509C20.3173 36.5206 20.5104 36.3038 20.67 36.2325C20.6565 36.2654 20.611 36.3703 20.6036 36.3996C19.8769 37.0479 19.5602 37.0388 18.6254 37.2136C18.3157 37.1549 17.8984 37.1496 17.5215 37.0788C16.238 36.8424 15.1003 36.1074 14.3575 35.0345C12.7786 32.714 13.3765 29.6136 15.6079 27.9348C15.9085 27.7087 16.2714 27.5531 16.59 27.3373Z" fill="none"/>
<path d="M30.7271 36.377C30.9018 36.6412 30.8284 37.7297 30.77 38.04C30.6441 38.7098 29.9762 40.2289 29.3878 40.6046C29.0377 41.0511 28.3984 41.3724 27.8893 41.6074C25.5856 42.6707 22.8708 41.4833 21.9199 39.0902C22.0583 39.0933 22.8558 39.18 22.9516 39.2326C23.1733 39.2445 23.3949 39.2543 23.6166 39.2618C25.6557 39.3225 27.955 38.6179 29.6084 37.3957C29.8881 37.189 30.4533 36.6348 30.7271 36.377Z" fill="none"/>
<path d="M20.6032 36.4008L20.6226 36.4365C20.5078 36.726 19.9763 36.8726 19.9051 37.0744C19.9796 37.1681 20.3903 37.6848 20.474 37.7333C21.9376 38.5553 23.8105 38.4616 25.4268 38.6955C26.6288 38.8695 26.3307 38.8993 27.4872 38.4593C29.2254 37.7982 30.1454 36.9352 31.2843 35.531L31.3643 35.5293C31.1767 35.8571 30.9437 36.0796 30.7261 36.3785C30.4523 36.6363 29.8871 37.1906 29.6074 37.3973C27.954 38.6194 25.6547 39.3241 23.6156 39.2633C23.3939 39.2558 23.1723 39.2461 22.9506 39.2342C22.8548 39.1815 22.0573 39.0949 21.9189 39.0918C21.7857 39.0094 21.1999 38.8164 21.0007 38.7343C20.042 38.34 19.3598 37.9401 18.625 37.2149C19.5598 37.0401 19.8765 37.0491 20.6032 36.4008Z" fill="#000000"/>
<path d="M16.5898 27.338C16.7267 27.2022 17.0501 26.4595 17.2031 26.223C18.0238 24.9538 19.2914 23.8807 20.6137 23.1647C21.0876 22.9083 21.6854 22.7437 22.1845 22.6094C22.1801 22.6159 22.1427 22.6757 22.1427 22.6757C20.2889 23.1633 18.597 24.4245 17.4905 25.973C17.3885 26.1153 17.4567 26.6099 17.3077 26.7568C17.2538 26.8273 17.2013 26.894 17.1466 26.9609L17.1932 27.0444L17.2563 27.0539C17.3635 26.9615 17.4226 26.8466 17.5088 26.8508L17.4931 26.9563C17.8402 26.9418 18.346 26.8981 18.6418 27.0856L18.6524 27.1429L18.3372 27.0637C17.8935 26.9086 17.0585 27.1106 16.6699 27.2958C16.6427 27.3086 16.6159 27.3227 16.5898 27.338Z" fill="#000000"/>
<path d="M19.7057 6.0614C20.3021 5.93309 20.617 6.02608 21.1796 6.15554C23.1915 6.61861 24.5807 8.59432 24.4621 10.6337C24.457 10.7235 24.45 10.9 24.4584 10.9834C26.8484 14.0873 26.3276 18.4384 23.2 20.8362C21.7209 21.9681 19.8488 22.4571 18.0053 22.1929C16.0095 21.9239 14.4343 21.007 13.2188 19.4099C12.8811 18.9707 12.5967 18.4935 12.3702 17.988C12.2271 17.6713 12.1287 17.3088 11.9291 17.0317C10.4038 16.0816 9.63381 14.2885 10.1704 12.5539C10.5759 11.2437 11.2909 10.5267 12.5853 10.1257C12.8147 9.99524 13.5696 9.91031 13.8871 9.98456C15.0505 8.9967 14.8098 9.11148 16.2943 8.56748C16.4253 8.43345 16.6811 8.03647 16.7887 7.87222C17.5667 6.68085 18.3367 6.32824 19.7057 6.0614Z" fill="#000000"/>
<path d="M19.7059 6.0614C20.3023 5.93309 20.6172 6.02608 21.1799 6.15554C23.1918 6.61861 24.5809 8.59432 24.4624 10.6337C24.4573 10.7235 24.4503 10.9 24.4587 10.9834C24.3828 11.3833 24.2154 11.8239 23.8715 12.0497C22.2387 13.1227 18.4522 11.9286 17.1886 10.7891C17.0048 10.6706 16.7236 10.3921 16.586 10.2183C16.1078 9.61491 16.2186 9.233 16.2946 8.56748C16.4256 8.43345 16.6814 8.03647 16.789 7.87222C17.567 6.68085 18.337 6.32824 19.7059 6.0614Z" fill="none"/>
<path d="M16.2946 8.56663C16.4256 8.4326 16.6814 8.03562 16.789 7.87137C17.567 6.68 18.337 6.32739 19.7059 6.06055C19.4582 6.31376 18.7154 6.30528 18.486 6.48775C17.3413 7.39864 16.5431 8.71052 16.6675 10.1885C16.7893 10.3109 17.149 10.6438 17.1886 10.7882C17.0048 10.6698 16.7236 10.3912 16.586 10.2175C16.1078 9.61406 16.2186 9.23215 16.2946 8.56663Z" fill="none"/>
<path d="M12.5853 10.1258C12.8147 9.99535 13.5696 9.91042 13.8871 9.98466C12.5365 11.6258 11.8502 12.7782 11.7199 14.996C11.7181 15.3835 11.7151 15.6236 11.7643 16.0101C11.7922 16.2303 11.9302 16.8599 11.9291 17.0318C10.4038 16.0817 9.63381 14.2886 10.1704 12.554C10.5759 11.2438 11.2909 10.5268 12.5853 10.1258Z" fill="none"/>
<path d="M11.9291 17.0311C10.4038 16.0809 9.63381 14.2878 10.1704 12.5532C10.5759 11.243 11.2909 10.526 12.5853 10.125C12.4392 10.3062 12.2128 10.2773 12.0421 10.4184C10.9756 11.3008 10.4956 12.2825 10.5719 13.6775C10.6203 14.5573 10.7183 15.3167 11.634 15.6942C11.6498 15.5448 11.6869 15.1242 11.7199 14.9952C11.7181 15.3827 11.7151 15.6228 11.7643 16.0093C11.7922 16.2295 11.9302 16.8591 11.9291 17.0311Z" fill="none"/>
<path d="M31.92 12.6444C32.1292 12.3223 32.8357 12.099 33.2027 12.0218C33.9561 11.87 34.739 12.0243 35.3783 12.4508C36.098 12.9267 36.9297 14.2739 36.5707 15.1283C36.8243 15.7908 37.2556 16.4224 37.2978 17.096C37.7749 17.4939 38.241 17.9291 38.5214 18.4944C38.6689 18.7916 38.7096 19.3436 38.8858 19.6078V20.0415C38.6025 20.8416 38.4215 21.6683 37.6097 22.2158C37.6053 22.2177 37.6009 22.2196 37.5965 22.2215C36.8952 22.8166 36.1912 22.978 35.2737 22.9263C35.0329 22.9128 34.5984 22.8244 34.3903 22.8213C34.1444 22.9873 33.9745 23.0717 33.6967 23.1553C28.8554 24.6112 24.8521 19.8083 27.2399 15.3059C27.9522 13.9625 29.2254 13.2396 30.678 12.8847C31.0758 12.7875 31.5394 12.7649 31.92 12.6444Z" fill="#000000"/>
<path d="M36.5307 16.8574C36.77 16.911 37.0324 17.0325 37.2988 17.0977C37.776 17.4955 38.2421 17.9307 38.5225 18.4961C38.67 18.7933 38.7107 19.3452 38.8869 19.6094V20.0432C38.6036 20.8433 38.4226 21.67 37.6108 22.2175C37.6064 22.2194 37.602 22.2213 37.5976 22.2232C36.8962 22.8183 36.1923 22.9797 35.2748 22.928C35.034 22.9144 34.5995 22.8261 34.3914 22.823C33.4904 22.2003 33.5341 21.6488 33.748 20.6304C33.78 20.4193 33.9888 19.8258 34.0783 19.6226C34.5995 18.4386 35.3052 17.3637 36.5307 16.8574Z" fill="none"/>
<path d="M33.748 20.6309C33.7814 20.9797 33.7528 20.9474 34.0236 21.1725C34.9023 21.903 35.6763 22.1807 36.8126 22.0917C37.0199 22.0754 37.2188 22.2714 37.4174 22.2671C37.4489 22.2694 37.5106 22.2197 37.5976 22.2236C36.8962 22.8187 36.1923 22.9801 35.2748 22.9285C35.034 22.9149 34.5995 22.8265 34.3914 22.8235C33.4904 22.2008 33.5341 21.6493 33.748 20.6309Z" fill="none"/>
<path d="M31.9199 12.6444C32.1291 12.3223 32.8356 12.099 33.2026 12.0218C33.9561 11.87 34.7389 12.0243 35.3783 12.4508C36.098 12.9267 36.9296 14.2739 36.5707 15.1283C36.4411 15.0394 35.8356 14.2849 35.5875 14.0705C34.7375 13.3356 33.9869 13.0235 32.8833 12.8089C32.64 12.7616 32.1464 12.7086 31.9489 12.6528L31.9199 12.6444Z" fill="none"/>
</svg>
