<svg width="48" height="48" viewBox="0 0 48 48" fill="#000000" xmlns="http://www.w3.org/2000/svg">
<path d="M33.1366 8C33.4119 8.12817 34.6804 9.49195 34.9755 9.77357C36.419 11.151 37.7886 12.6311 39.2256 14.0117C38.7375 14.6203 37.5093 15.7663 36.921 16.3565L31.9815 21.2735C31.4698 21.7771 30.1453 22.9692 29.7914 23.4847C29.8476 23.8332 38.2503 31.8716 39.2437 33.0445C38.4354 33.9029 37.619 34.5981 36.8139 35.4075L34.6081 37.6097C34.1804 38.0391 33.6468 38.6111 33.2002 39C33.0755 38.9805 32.8934 38.8015 32.8005 38.7117C30.0382 36.0371 27.3317 33.3065 24.6029 30.5974C24.2902 30.2869 23.9137 29.8201 23.5726 29.5647L23.5593 29.555C23.1645 30.1139 21.6825 31.5139 21.1354 32.0558L17.2022 35.9676C16.6893 36.4793 16.0823 37.0372 15.6006 37.5518C15.2883 37.8856 14.3993 38.6736 14.2027 38.9963C13.9303 39.0224 13.4134 38.4321 13.2064 38.2315C12.7367 37.7756 12.2698 37.3167 11.8057 36.8549C10.9706 36.0268 10.157 35.1867 9.32768 34.3537C8.89069 33.9148 8.43665 33.4886 8.01982 33.0295C8.24987 32.6746 9.56951 31.4612 9.93638 31.0873C11.9475 29.0375 14.0522 27.0576 16.0318 24.9778C16.5646 24.418 17.0185 24.0893 17.4893 23.4662C16.904 22.9702 16.5825 22.5701 16.0667 22.0647C14.8362 20.8639 13.6158 19.6528 12.4057 18.4315L9.5391 15.5732C9.14295 15.1801 8.31274 14.4116 8 13.9983C8.2902 13.6757 8.55948 13.4451 8.86637 13.1443L10.5855 11.4556L12.6887 9.34546C13.0114 9.02058 13.7314 8.2501 14.0917 8.02217C14.4109 8.27727 14.9254 8.82289 15.2462 9.11964C16.3319 10.1242 17.3589 11.1978 18.4084 12.2387L21.3012 15.1146C22.0139 15.818 22.9161 16.6746 23.5562 17.4371C23.8084 17.2768 25.2223 15.8285 25.525 15.5298L31.375 9.70532C31.7416 9.34164 32.79 8.21598 33.1366 8Z" fill="#000000"/>
<path d="M13.0925 12.2542C13.3846 12.3474 22.481 21.5153 23.5931 22.6442C23.9159 22.4075 24.4354 21.8547 24.7334 21.5541C25.2769 21.0044 25.8239 20.4583 26.3744 19.9158L31.2618 15.0492C32.1662 14.1483 33.1636 13.0917 34.1066 12.2461C34.3725 12.5329 34.6477 12.8111 34.9317 13.0801C33.9267 14.1133 32.9094 15.1345 31.8801 16.1434L27.3278 20.6851C26.5371 21.4764 25.224 22.694 24.5243 23.4903C24.7175 23.7936 25.2033 24.2465 25.4728 24.5122C25.9371 24.9661 26.3988 25.4227 26.8577 25.8821L32.0999 31.1076C33.0288 32.0315 34.0268 32.985 34.9162 33.9412C34.6616 34.2148 34.4084 34.4897 34.1566 34.7659L34.1323 34.7763C34.1107 34.7731 34.0843 34.7692 34.0531 34.7646C33.3945 34.134 32.5159 33.2479 31.895 32.6269L25.8791 26.642C25.3119 26.0763 24.1983 24.8885 23.6132 24.4168C23.3618 24.5942 22.7328 25.2539 22.4961 25.4917C21.8899 26.1035 21.2798 26.7114 20.6659 27.3153L16.0211 31.937C15.0686 32.886 14.1077 33.8735 13.1338 34.7978C12.8617 34.5105 12.5854 34.2271 12.305 33.9478C13.1386 33.0735 13.992 32.2551 14.8431 31.4057L19.971 26.2896C20.7434 25.5144 22.0628 24.2921 22.7355 23.5105L15.3141 16.1067C14.3453 15.1361 13.2134 14.0796 12.3008 13.0752C12.6219 12.7869 12.8407 12.6024 13.0925 12.2542Z" fill="none"/>
</svg>
